<svg width="6" height="147" viewBox="0 0 6 147" fill="none" xmlns="http://www.w3.org/2000/svg">
<path d="M1.82425 1.92742V1.07183H3.31481V5H2.35698V1.92742H1.82425Z" fill="#202C43"/>
<path d="M1.36337 20.406C1.48534 20.3091 1.54095 20.2643 1.53018 20.2715C1.88175 19.9809 2.15797 19.7423 2.35887 19.5558C2.56335 19.3692 2.73554 19.1737 2.87545 18.9692C3.01535 18.7648 3.08531 18.5657 3.08531 18.3719C3.08531 18.2249 3.05123 18.1101 2.98307 18.0276C2.91491 17.945 2.81267 17.9038 2.67635 17.9038C2.54003 17.9038 2.43241 17.9558 2.35348 18.0598C2.27815 18.1603 2.24048 18.3038 2.24048 18.4903H1.35261C1.35978 18.1854 1.42436 17.9307 1.54633 17.7262C1.67188 17.5217 1.83511 17.3711 2.036 17.2742C2.24048 17.1774 2.46649 17.1289 2.71402 17.1289C3.14091 17.1289 3.46198 17.2383 3.67722 17.4572C3.89605 17.676 4.00547 17.9612 4.00547 18.3128C4.00547 18.6966 3.87453 19.0535 3.61265 19.3836C3.35077 19.71 3.01715 20.0293 2.61178 20.3414H4.06466V21.0894H1.36337V20.406Z" fill="#202C43"/>
<path d="M1.33598 33.6595C1.35033 33.2757 1.47589 32.9797 1.71266 32.7716C1.94942 32.5636 2.27049 32.4595 2.67586 32.4595C2.94492 32.4595 3.17451 32.5062 3.36464 32.5994C3.55836 32.6927 3.70365 32.8201 3.80051 32.9815C3.90095 33.1429 3.95117 33.3241 3.95117 33.525C3.95117 33.7618 3.89198 33.9555 3.7736 34.1061C3.65522 34.2532 3.5171 34.3537 3.35926 34.4075V34.429C3.56374 34.4972 3.72517 34.6102 3.84355 34.768C3.96194 34.9259 4.02113 35.1285 4.02113 35.3761C4.02113 35.5985 3.96911 35.7958 3.86508 35.968C3.76463 36.1366 3.61576 36.2693 3.41845 36.3662C3.22473 36.463 2.99335 36.5115 2.72429 36.5115C2.29381 36.5115 1.94942 36.4056 1.69113 36.194C1.43643 35.9823 1.3019 35.6631 1.28755 35.2362H2.18081C2.1844 35.394 2.22924 35.5196 2.31533 35.6128C2.40143 35.7025 2.52699 35.7474 2.69201 35.7474C2.83192 35.7474 2.93954 35.7079 3.01487 35.629C3.09379 35.5465 3.13325 35.4388 3.13325 35.3061C3.13325 35.1339 3.07765 35.0102 2.96644 34.9348C2.85882 34.8559 2.68483 34.8164 2.44448 34.8164H2.27229V34.0685H2.44448C2.62744 34.0685 2.77452 34.038 2.88573 33.977C3.00052 33.9124 3.05792 33.7994 3.05792 33.638C3.05792 33.5088 3.02205 33.4084 2.9503 33.3367C2.87855 33.2649 2.7799 33.229 2.65434 33.229C2.51802 33.229 2.41578 33.2703 2.34762 33.3528C2.28305 33.4353 2.24538 33.5375 2.23462 33.6595H1.33598Z" fill="#202C43"/>
<path d="M1.13341 50.5775V49.8349L2.83383 47.4027H3.86161V49.7811H4.30286V50.5775H3.86161V51.2771H2.94145V50.5775H1.13341ZM3.00602 48.4143L2.102 49.7811H3.00602V48.4143Z" fill="#202C43"/>
<path d="M3.94869 63.4867H2.26981V64.2293C2.34155 64.1503 2.442 64.0858 2.57114 64.0355C2.70029 63.9853 2.8402 63.9602 2.99087 63.9602C3.25992 63.9602 3.48234 64.0212 3.65812 64.1432C3.83749 64.2651 3.96842 64.423 4.05093 64.6167C4.13344 64.8104 4.1747 65.0203 4.1747 65.2463C4.1747 65.666 4.05632 65.9996 3.81955 66.2472C3.58278 66.4911 3.24916 66.6131 2.81867 66.6131C2.53168 66.6131 2.28236 66.5646 2.07071 66.4678C1.85905 66.3673 1.69583 66.2292 1.58103 66.0534C1.46623 65.8777 1.40346 65.675 1.39269 65.4454H2.29133C2.31285 65.5566 2.36487 65.6499 2.44738 65.7252C2.52989 65.7969 2.64289 65.8328 2.78639 65.8328C2.95499 65.8328 3.08055 65.779 3.16306 65.6714C3.24557 65.5638 3.28682 65.4203 3.28682 65.2409C3.28682 65.0651 3.24378 64.9306 3.15768 64.8373C3.07158 64.744 2.94602 64.6974 2.78101 64.6974C2.65903 64.6974 2.55859 64.7279 2.47967 64.7889C2.40074 64.8463 2.34873 64.9234 2.32362 65.0203H1.43574V62.6795H3.94869V63.4867Z" fill="#202C43"/>
<path d="M3.16218 79.081C3.13348 78.9482 3.08326 78.8496 3.01151 78.785C2.93976 78.7168 2.83752 78.6828 2.70479 78.6828C2.50031 78.6828 2.35323 78.7725 2.26354 78.9518C2.17386 79.1276 2.12722 79.4074 2.12363 79.7913C2.20256 79.6657 2.31556 79.5671 2.46264 79.4953C2.61331 79.4236 2.77833 79.3877 2.9577 79.3877C3.30926 79.3877 3.59087 79.4989 3.80252 79.7213C4.01777 79.9437 4.12539 80.254 4.12539 80.6522C4.12539 80.9141 4.07158 81.1437 3.96395 81.341C3.85992 81.5383 3.70566 81.6926 3.50118 81.8038C3.30029 81.915 3.06173 81.9706 2.7855 81.9706C2.23305 81.9706 1.8492 81.7984 1.63396 81.454C1.41872 81.106 1.31109 80.6074 1.31109 79.9581C1.31109 79.2765 1.4241 78.7707 1.6501 78.4406C1.87969 78.107 2.2456 77.9402 2.74784 77.9402C3.01689 77.9402 3.24289 77.994 3.42585 78.1016C3.61239 78.2056 3.7523 78.3438 3.84557 78.516C3.94243 78.6881 3.99983 78.8765 4.01777 79.081H3.16218ZM2.73707 80.1141C2.58282 80.1141 2.45367 80.1608 2.34964 80.254C2.24919 80.3437 2.19897 80.4729 2.19897 80.6415C2.19897 80.8137 2.2456 80.9482 2.33888 81.045C2.43574 81.1419 2.57206 81.1903 2.74784 81.1903C2.90568 81.1903 3.02944 81.1437 3.11913 81.0504C3.2124 80.9536 3.25904 80.8226 3.25904 80.6576C3.25904 80.489 3.21419 80.3563 3.12451 80.2594C3.03483 80.1626 2.90568 80.1141 2.73707 80.1141Z" fill="#202C43"/>
<path d="M4.00044 95.1219L2.6498 98.3613H1.70812L3.0749 95.2241H1.4014V94.4385H4.00044V95.1219Z" fill="#202C43"/>
<path d="M1.83381 111.588C1.4966 111.409 1.32799 111.127 1.32799 110.743C1.32799 110.549 1.37822 110.374 1.47866 110.216C1.57911 110.054 1.73157 109.927 1.93605 109.834C2.14053 109.737 2.39165 109.688 2.6894 109.688C2.98715 109.688 3.23648 109.737 3.43737 109.834C3.64185 109.927 3.79431 110.054 3.89476 110.216C3.9952 110.374 4.04543 110.549 4.04543 110.743C4.04543 110.937 3.99879 111.105 3.90552 111.249C3.81584 111.392 3.69387 111.505 3.53961 111.588C3.73333 111.681 3.8822 111.81 3.98624 111.975C4.09027 112.137 4.14229 112.327 4.14229 112.546C4.14229 112.8 4.07771 113.021 3.94857 113.208C3.81942 113.391 3.64364 113.53 3.42122 113.627C3.2024 113.724 2.95845 113.773 2.6894 113.773C2.42035 113.773 2.17461 113.724 1.9522 113.627C1.73337 113.53 1.55938 113.391 1.43023 113.208C1.30109 113.021 1.23652 112.8 1.23652 112.546C1.23652 112.323 1.28853 112.131 1.39257 111.97C1.4966 111.805 1.64368 111.678 1.83381 111.588ZM3.15217 110.883C3.15217 110.736 3.10912 110.623 3.02303 110.544C2.94052 110.461 2.82931 110.42 2.6894 110.42C2.54949 110.42 2.43649 110.461 2.3504 110.544C2.26789 110.627 2.22663 110.741 2.22663 110.888C2.22663 111.028 2.26968 111.14 2.35578 111.222C2.44187 111.301 2.55308 111.34 2.6894 111.34C2.82572 111.34 2.93693 111.299 3.02303 111.217C3.10912 111.134 3.15217 111.023 3.15217 110.883ZM2.6894 111.986C2.5208 111.986 2.38448 112.033 2.28044 112.126C2.17641 112.216 2.12439 112.341 2.12439 112.503C2.12439 112.653 2.17461 112.777 2.27506 112.874C2.37909 112.971 2.51721 113.019 2.6894 113.019C2.8616 113.019 2.99612 112.971 3.09298 112.874C3.19343 112.777 3.24365 112.653 3.24365 112.503C3.24365 112.345 3.19163 112.219 3.0876 112.126C2.98715 112.033 2.85442 111.986 2.6894 111.986Z" fill="#202C43"/>
<path d="M2.26754 128.151C2.32135 128.434 2.48636 128.576 2.76259 128.576C2.95272 128.576 3.08725 128.492 3.16617 128.323C3.24509 128.154 3.28455 127.88 3.28455 127.5C3.20563 127.611 3.09801 127.697 2.96169 127.758C2.82537 127.819 2.67291 127.85 2.5043 127.85C2.27471 127.85 2.07023 127.803 1.89086 127.71C1.71149 127.613 1.56979 127.471 1.46576 127.285C1.36531 127.094 1.31509 126.865 1.31509 126.596C1.31509 126.33 1.3689 126.099 1.47652 125.902C1.58773 125.704 1.74378 125.552 1.94467 125.444C2.14915 125.337 2.38951 125.283 2.66573 125.283C3.19666 125.283 3.56796 125.448 3.77961 125.778C3.99127 126.108 4.09709 126.594 4.09709 127.236C4.09709 127.702 4.05405 128.088 3.96795 128.393C3.88544 128.694 3.74374 128.924 3.54285 129.082C3.34554 129.24 3.07469 129.319 2.73031 129.319C2.45767 129.319 2.22449 129.265 2.03077 129.157C1.84064 129.049 1.69356 128.908 1.58952 128.732C1.48908 128.556 1.43168 128.363 1.41733 128.151H2.26754ZM2.71416 127.123C2.86483 127.123 2.98501 127.078 3.07469 126.989C3.16438 126.895 3.20922 126.77 3.20922 126.612C3.20922 126.44 3.16258 126.307 3.06931 126.214C2.97604 126.12 2.85048 126.074 2.69264 126.074C2.53479 126.074 2.40924 126.122 2.31596 126.219C2.22628 126.312 2.18144 126.441 2.18144 126.606C2.18144 126.761 2.22628 126.886 2.31596 126.983C2.40924 127.076 2.54197 127.123 2.71416 127.123Z" fill="#202C43"/>
<path d="M0.378565 141.566V140.71H1.86912V144.638H0.911289V141.566H0.378565ZM2.49857 142.621C2.49857 142.003 2.61696 141.517 2.85372 141.162C3.09408 140.807 3.47972 140.63 4.01065 140.63C4.54158 140.63 4.92543 140.807 5.1622 141.162C5.40255 141.517 5.52273 142.003 5.52273 142.621C5.52273 143.245 5.40255 143.734 5.1622 144.09C4.92543 144.445 4.54158 144.622 4.01065 144.622C3.47972 144.622 3.09408 144.445 2.85372 144.09C2.61696 143.734 2.49857 143.245 2.49857 142.621ZM4.61871 142.621C4.61871 142.258 4.57925 141.98 4.50033 141.786C4.4214 141.589 4.25818 141.49 4.01065 141.49C3.76312 141.49 3.5999 141.589 3.52097 141.786C3.44205 141.98 3.40259 142.258 3.40259 142.621C3.40259 142.864 3.41694 143.067 3.44564 143.229C3.47434 143.386 3.53174 143.516 3.61783 143.616C3.70752 143.713 3.83846 143.761 4.01065 143.761C4.18284 143.761 4.31199 143.713 4.39809 143.616C4.48777 143.516 4.54696 143.386 4.57566 143.229C4.60436 143.067 4.61871 142.864 4.61871 142.621Z" fill="#202C43"/>
</svg>
