<svg width="145" height="113" viewBox="0 0 145 113" fill="none" xmlns="http://www.w3.org/2000/svg">
<rect width="3.07221" height="2.30227" rx="0.430476" transform="matrix(-1 -1.74846e-07 -1.74846e-07 1 20.085 14.421)" fill="#A6A6A6" fill-opacity="0.5"/>
<rect width="2.15055" height="0.460455" rx="0.230228" transform="matrix(-1 -1.74846e-07 -1.74846e-07 1 19.6242 16.8767)" fill="#A6A6A6" fill-opacity="0.5"/>
<rect width="3.07221" height="2.30227" rx="0.430476" transform="matrix(-1 -1.74846e-07 -1.74846e-07 1 25.74 14.421)" fill="#A6A6A6" fill-opacity="0.5"/>
<rect width="2.15055" height="0.460455" rx="0.230228" transform="matrix(-1 -1.74846e-07 -1.74846e-07 1 25.2792 16.8767)" fill="#A6A6A6" fill-opacity="0.5"/>
<rect width="3.07221" height="2.30227" rx="0.430476" transform="matrix(-1 -1.74846e-07 -1.74846e-07 1 37.0502 14.421)" fill="#61C3F2"/>
<rect width="2.15055" height="0.460455" rx="0.230228" transform="matrix(-1 -1.74846e-07 -1.74846e-07 1 36.5894 16.8767)" fill="#61C3F2"/>
<rect width="3.07221" height="2.30227" rx="0.430476" transform="matrix(-1 -1.74846e-07 -1.74846e-07 1 42.7052 14.421)" fill="#61C3F2"/>
<rect width="2.15055" height="0.460455" rx="0.230228" transform="matrix(-1 -1.74846e-07 -1.74846e-07 1 42.2444 16.8767)" fill="#61C3F2"/>
<rect width="3.07221" height="2.30227" rx="0.430476" transform="matrix(-1 -1.74846e-07 -1.74846e-07 1 48.3604 14.421)" fill="#A6A6A6" fill-opacity="0.5"/>
<rect width="2.15055" height="0.460455" rx="0.230228" transform="matrix(-1 -1.74846e-07 -1.74846e-07 1 47.8996 16.8767)" fill="#A6A6A6" fill-opacity="0.5"/>
<rect width="3.07221" height="2.30227" rx="0.430476" transform="matrix(-1 -1.74846e-07 -1.74846e-07 1 54.0154 14.421)" fill="#A6A6A6" fill-opacity="0.5"/>
<rect width="2.15055" height="0.460455" rx="0.230228" transform="matrix(-1 -1.74846e-07 -1.74846e-07 1 53.5546 16.8767)" fill="#A6A6A6" fill-opacity="0.5"/>
<rect width="3.07221" height="2.30227" rx="0.430476" transform="matrix(-1 -1.74846e-07 -1.74846e-07 1 59.6704 14.421)" fill="#61C3F2"/>
<rect width="2.15055" height="0.460455" rx="0.230228" transform="matrix(-1 -1.74846e-07 -1.74846e-07 1 59.2096 16.8767)" fill="#61C3F2"/>
<rect width="3.07221" height="2.30227" rx="0.430476" transform="matrix(-1 -1.74846e-07 -1.74846e-07 1 65.3256 14.421)" fill="#61C3F2"/>
<rect width="2.15055" height="0.460455" rx="0.230228" transform="matrix(-1 -1.74846e-07 -1.74846e-07 1 64.8648 16.8767)" fill="#61C3F2"/>
<rect width="3.07221" height="2.30227" rx="0.430476" transform="matrix(-1 -1.74846e-07 -1.74846e-07 1 70.9806 14.421)" fill="#A6A6A6" fill-opacity="0.5"/>
<rect width="2.15055" height="0.460455" rx="0.230228" transform="matrix(-1 -1.74846e-07 -1.74846e-07 1 70.5198 16.8767)" fill="#A6A6A6" fill-opacity="0.5"/>
<rect width="3.07221" height="2.30227" rx="0.430476" transform="matrix(-1 -1.74846e-07 -1.74846e-07 1 76.6357 14.421)" fill="#A6A6A6" fill-opacity="0.5"/>
<rect width="2.15055" height="0.460455" rx="0.230228" transform="matrix(-1 -1.74846e-07 -1.74846e-07 1 76.1748 16.8767)" fill="#A6A6A6" fill-opacity="0.5"/>
<rect width="3.07221" height="2.30227" rx="0.430476" transform="matrix(-1 -1.74846e-07 -1.74846e-07 1 82.2908 14.421)" fill="#61C3F2"/>
<rect width="2.15055" height="0.460455" rx="0.230228" transform="matrix(-1 -1.74846e-07 -1.74846e-07 1 81.83 16.8767)" fill="#61C3F2"/>
<rect width="3.07221" height="2.30227" rx="0.430476" transform="matrix(-1 -1.74846e-07 -1.74846e-07 1 87.9458 14.421)" fill="#61C3F2"/>
<rect width="2.15055" height="0.460455" rx="0.230228" transform="matrix(-1 -1.74846e-07 -1.74846e-07 1 87.485 16.8767)" fill="#61C3F2"/>
<rect width="3.07221" height="2.30227" rx="0.430476" transform="matrix(-1 -1.74846e-07 -1.74846e-07 1 93.6009 14.421)" fill="#A6A6A6" fill-opacity="0.5"/>
<rect width="2.15055" height="0.460455" rx="0.230228" transform="matrix(-1 -1.74846e-07 -1.74846e-07 1 93.14 16.8767)" fill="#A6A6A6" fill-opacity="0.5"/>
<rect width="3.07221" height="2.30227" rx="0.430476" transform="matrix(-1 -1.74846e-07 -1.74846e-07 1 99.256 14.421)" fill="#A6A6A6" fill-opacity="0.5"/>
<rect width="2.15055" height="0.460455" rx="0.230228" transform="matrix(-1 -1.74846e-07 -1.74846e-07 1 98.7951 16.8767)" fill="#A6A6A6" fill-opacity="0.5"/>
<rect width="3.07221" height="2.30227" rx="0.430476" transform="matrix(-1 -1.74846e-07 -1.74846e-07 1 104.911 14.421)" fill="#61C3F2"/>
<rect width="2.15055" height="0.460455" rx="0.230228" transform="matrix(-1 -1.74846e-07 -1.74846e-07 1 104.45 16.8767)" fill="#61C3F2"/>
<rect width="3.07221" height="2.30227" rx="0.430476" transform="matrix(-1 -1.74846e-07 -1.74846e-07 1 110.566 14.421)" fill="#61C3F2"/>
<rect width="2.15055" height="0.460455" rx="0.230228" transform="matrix(-1 -1.74846e-07 -1.74846e-07 1 110.105 16.8767)" fill="#61C3F2"/>
<rect width="3.07221" height="2.30227" rx="0.430476" transform="matrix(-1 -1.74846e-07 -1.74846e-07 1 121.876 14.421)" fill="#A6A6A6" fill-opacity="0.5"/>
<rect width="2.15055" height="0.460455" rx="0.230228" transform="matrix(-1 -1.74846e-07 -1.74846e-07 1 121.415 16.8767)" fill="#A6A6A6" fill-opacity="0.5"/>
<rect width="3.07221" height="2.30227" rx="0.430476" transform="matrix(-1 -1.74846e-07 -1.74846e-07 1 127.531 14.421)" fill="#A6A6A6" fill-opacity="0.5"/>
<rect width="2.15055" height="0.460455" rx="0.230228" transform="matrix(-1 -1.74846e-07 -1.74846e-07 1 127.07 16.8767)" fill="#A6A6A6" fill-opacity="0.5"/>
<rect width="3.07221" height="2.30227" rx="0.430476" transform="matrix(-1 -1.74846e-07 -1.74846e-07 1 8.77481 21.2115)" fill="#61C3F2"/>
<rect width="2.15055" height="0.460455" rx="0.230228" transform="matrix(-1 -1.74846e-07 -1.74846e-07 1 8.314 23.6672)" fill="#61C3F2"/>
<rect width="3.07221" height="2.30227" rx="0.430476" transform="matrix(-1 -1.74846e-07 -1.74846e-07 1 14.43 21.2115)" fill="#A6A6A6" fill-opacity="0.5"/>
<rect width="2.15055" height="0.460455" rx="0.230228" transform="matrix(-1 -1.74846e-07 -1.74846e-07 1 13.9691 23.6672)" fill="#A6A6A6" fill-opacity="0.5"/>
<rect width="3.07221" height="2.30227" rx="0.430476" transform="matrix(-1 -1.74846e-07 -1.74846e-07 1 20.085 21.2115)" fill="#61C3F2"/>
<rect width="2.15055" height="0.460455" rx="0.230228" transform="matrix(-1 -1.74846e-07 -1.74846e-07 1 19.6242 23.6672)" fill="#61C3F2"/>
<rect width="3.07221" height="2.30227" rx="0.430476" transform="matrix(-1 -1.74846e-07 -1.74846e-07 1 25.74 21.2115)" fill="#A6A6A6" fill-opacity="0.5"/>
<rect width="2.15055" height="0.460455" rx="0.230228" transform="matrix(-1 -1.74846e-07 -1.74846e-07 1 25.2792 23.6672)" fill="#A6A6A6" fill-opacity="0.5"/>
<rect width="3.07221" height="2.30227" rx="0.430476" transform="matrix(-1 -1.74846e-07 -1.74846e-07 1 37.0502 21.2115)" fill="#A6A6A6" fill-opacity="0.5"/>
<rect width="2.15055" height="0.460455" rx="0.230228" transform="matrix(-1 -1.74846e-07 -1.74846e-07 1 36.5894 23.6672)" fill="#A6A6A6" fill-opacity="0.5"/>
<rect width="3.07221" height="2.30227" rx="0.430476" transform="matrix(-1 -1.74846e-07 -1.74846e-07 1 42.7052 21.2115)" fill="#A6A6A6" fill-opacity="0.5"/>
<rect width="2.15055" height="0.460455" rx="0.230228" transform="matrix(-1 -1.74846e-07 -1.74846e-07 1 42.2444 23.6672)" fill="#A6A6A6" fill-opacity="0.5"/>
<rect width="3.07221" height="2.30227" rx="0.430476" transform="matrix(-1 -1.74846e-07 -1.74846e-07 1 48.3604 21.2115)" fill="#61C3F2"/>
<rect width="2.15055" height="0.460455" rx="0.230228" transform="matrix(-1 -1.74846e-07 -1.74846e-07 1 47.8996 23.6672)" fill="#61C3F2"/>
<rect width="3.07221" height="2.30227" rx="0.430476" transform="matrix(-1 -1.74846e-07 -1.74846e-07 1 54.0154 21.2115)" fill="#61C3F2"/>
<rect width="2.15055" height="0.460455" rx="0.230228" transform="matrix(-1 -1.74846e-07 -1.74846e-07 1 53.5546 23.6672)" fill="#61C3F2"/>
<rect width="3.07221" height="2.30227" rx="0.430476" transform="matrix(-1 -1.74846e-07 -1.74846e-07 1 59.6704 21.2115)" fill="#A6A6A6" fill-opacity="0.5"/>
<rect width="2.15055" height="0.460455" rx="0.230228" transform="matrix(-1 -1.74846e-07 -1.74846e-07 1 59.2096 23.6672)" fill="#A6A6A6" fill-opacity="0.5"/>
<rect width="3.07221" height="2.30227" rx="0.430476" transform="matrix(-1 -1.74846e-07 -1.74846e-07 1 65.3256 21.2115)" fill="#A6A6A6" fill-opacity="0.5"/>
<rect width="2.15055" height="0.460455" rx="0.230228" transform="matrix(-1 -1.74846e-07 -1.74846e-07 1 64.8648 23.6672)" fill="#A6A6A6" fill-opacity="0.5"/>
<rect width="3.07221" height="2.30227" rx="0.430476" transform="matrix(-1 -1.74846e-07 -1.74846e-07 1 70.9806 21.2115)" fill="#61C3F2"/>
<rect width="2.15055" height="0.460455" rx="0.230228" transform="matrix(-1 -1.74846e-07 -1.74846e-07 1 70.5198 23.6672)" fill="#61C3F2"/>
<rect width="3.07221" height="2.30227" rx="0.430476" transform="matrix(-1 -1.74846e-07 -1.74846e-07 1 76.6357 21.2115)" fill="#61C3F2"/>
<rect width="2.15055" height="0.460455" rx="0.230228" transform="matrix(-1 -1.74846e-07 -1.74846e-07 1 76.1748 23.6672)" fill="#61C3F2"/>
<rect width="3.07221" height="2.30227" rx="0.430476" transform="matrix(-1 -1.74846e-07 -1.74846e-07 1 82.2908 21.2115)" fill="#A6A6A6" fill-opacity="0.5"/>
<rect width="2.15055" height="0.460455" rx="0.230228" transform="matrix(-1 -1.74846e-07 -1.74846e-07 1 81.83 23.6672)" fill="#A6A6A6" fill-opacity="0.5"/>
<rect width="3.07221" height="2.30227" rx="0.430476" transform="matrix(-1 -1.74846e-07 -1.74846e-07 1 87.9458 21.2115)" fill="#A6A6A6" fill-opacity="0.5"/>
<rect width="2.15055" height="0.460455" rx="0.230228" transform="matrix(-1 -1.74846e-07 -1.74846e-07 1 87.485 23.6672)" fill="#A6A6A6" fill-opacity="0.5"/>
<rect width="3.07221" height="2.30227" rx="0.430476" transform="matrix(-1 -1.74846e-07 -1.74846e-07 1 93.6009 21.2115)" fill="#61C3F2"/>
<rect width="2.15055" height="0.460455" rx="0.230228" transform="matrix(-1 -1.74846e-07 -1.74846e-07 1 93.14 23.6672)" fill="#61C3F2"/>
<rect width="3.07221" height="2.30227" rx="0.430476" transform="matrix(-1 -1.74846e-07 -1.74846e-07 1 99.256 21.2115)" fill="#61C3F2"/>
<rect width="2.15055" height="0.460455" rx="0.230228" transform="matrix(-1 -1.74846e-07 -1.74846e-07 1 98.7951 23.6672)" fill="#61C3F2"/>
<rect width="3.07221" height="2.30227" rx="0.430476" transform="matrix(-1 -1.74846e-07 -1.74846e-07 1 104.911 21.2115)" fill="#A6A6A6" fill-opacity="0.5"/>
<rect width="2.15055" height="0.460455" rx="0.230228" transform="matrix(-1 -1.74846e-07 -1.74846e-07 1 104.45 23.6672)" fill="#A6A6A6" fill-opacity="0.5"/>
<rect width="3.07221" height="2.30227" rx="0.430476" transform="matrix(-1 -1.74846e-07 -1.74846e-07 1 110.566 21.2115)" fill="#A6A6A6" fill-opacity="0.5"/>
<rect width="2.15055" height="0.460455" rx="0.230228" transform="matrix(-1 -1.74846e-07 -1.74846e-07 1 110.105 23.6672)" fill="#A6A6A6" fill-opacity="0.5"/>
<rect width="3.07221" height="2.30227" rx="0.430476" transform="matrix(-1 -1.74846e-07 -1.74846e-07 1 121.876 21.2115)" fill="#A6A6A6" fill-opacity="0.5"/>
<rect width="2.15055" height="0.460455" rx="0.230228" transform="matrix(-1 -1.74846e-07 -1.74846e-07 1 121.415 23.6672)" fill="#A6A6A6" fill-opacity="0.5"/>
<rect width="3.07221" height="2.30227" rx="0.430476" transform="matrix(-1 -1.74846e-07 -1.74846e-07 1 127.531 21.2115)" fill="#61C3F2"/>
<rect width="2.15055" height="0.460455" rx="0.230228" transform="matrix(-1 -1.74846e-07 -1.74846e-07 1 127.07 23.6672)" fill="#61C3F2"/>
<rect width="3.07221" height="2.30227" rx="0.430476" transform="matrix(-1 -1.74846e-07 -1.74846e-07 1 133.186 21.2115)" fill="#A6A6A6" fill-opacity="0.5"/>
<rect width="2.15055" height="0.460455" rx="0.230228" transform="matrix(-1 -1.74846e-07 -1.74846e-07 1 132.725 23.6672)" fill="#A6A6A6" fill-opacity="0.5"/>
<rect width="3.07221" height="2.30227" rx="0.430476" transform="matrix(-1 -1.74846e-07 -1.74846e-07 1 138.841 21.2115)" fill="#61C3F2"/>
<rect width="2.15055" height="0.460455" rx="0.230228" transform="matrix(-1 -1.74846e-07 -1.74846e-07 1 138.381 23.6672)" fill="#61C3F2"/>
<rect width="3.07221" height="2.30227" rx="0.430476" transform="matrix(-1 -1.74846e-07 -1.74846e-07 1 8.77481 28.002)" fill="#A6A6A6" fill-opacity="0.5"/>
<rect width="2.15055" height="0.460455" rx="0.230228" transform="matrix(-1 -1.74846e-07 -1.74846e-07 1 8.314 30.4577)" fill="#A6A6A6" fill-opacity="0.5"/>
<rect width="3.07221" height="2.30227" rx="0.430476" transform="matrix(-1 -1.74846e-07 -1.74846e-07 1 14.43 28.002)" fill="#61C3F2"/>
<rect width="2.15055" height="0.460455" rx="0.230228" transform="matrix(-1 -1.74846e-07 -1.74846e-07 1 13.9691 30.4577)" fill="#61C3F2"/>
<rect width="3.07221" height="2.30227" rx="0.430476" transform="matrix(-1 -1.74846e-07 -1.74846e-07 1 20.085 28.002)" fill="#A6A6A6" fill-opacity="0.5"/>
<rect width="2.15055" height="0.460455" rx="0.230228" transform="matrix(-1 -1.74846e-07 -1.74846e-07 1 19.6242 30.4577)" fill="#A6A6A6" fill-opacity="0.5"/>
<rect width="3.07221" height="2.30227" rx="0.430476" transform="matrix(-1 -1.74846e-07 -1.74846e-07 1 25.74 28.002)" fill="#A6A6A6" fill-opacity="0.5"/>
<rect width="2.15055" height="0.460455" rx="0.230228" transform="matrix(-1 -1.74846e-07 -1.74846e-07 1 25.2792 30.4577)" fill="#A6A6A6" fill-opacity="0.5"/>
<rect width="3.07221" height="2.30227" rx="0.430476" transform="matrix(-1 -1.74846e-07 -1.74846e-07 1 37.0502 28.002)" fill="#15D2BC"/>
<rect width="2.15055" height="0.460455" rx="0.230228" transform="matrix(-1 -1.74846e-07 -1.74846e-07 1 36.5894 30.4577)" fill="#15D2BC"/>
<rect width="3.07221" height="2.30227" rx="0.430476" transform="matrix(-1 -1.74846e-07 -1.74846e-07 1 42.7052 28.002)" fill="#15D2BC"/>
<rect width="2.15055" height="0.460455" rx="0.230228" transform="matrix(-1 -1.74846e-07 -1.74846e-07 1 42.2444 30.4577)" fill="#15D2BC"/>
<rect width="3.07221" height="2.30227" rx="0.430476" transform="matrix(-1 -1.74846e-07 -1.74846e-07 1 48.3604 28.002)" fill="#A6A6A6" fill-opacity="0.5"/>
<rect width="2.15055" height="0.460455" rx="0.230228" transform="matrix(-1 -1.74846e-07 -1.74846e-07 1 47.8996 30.4577)" fill="#A6A6A6" fill-opacity="0.5"/>
<rect width="3.07221" height="2.30227" rx="0.430476" transform="matrix(-1 -1.74846e-07 -1.74846e-07 1 54.0154 28.002)" fill="#A6A6A6" fill-opacity="0.5"/>
<rect width="2.15055" height="0.460455" rx="0.230228" transform="matrix(-1 -1.74846e-07 -1.74846e-07 1 53.5546 30.4577)" fill="#A6A6A6" fill-opacity="0.5"/>
<rect width="3.07221" height="2.30227" rx="0.430476" transform="matrix(-1 -1.74846e-07 -1.74846e-07 1 59.6704 28.002)" fill="#61C3F2"/>
<rect width="2.15055" height="0.460455" rx="0.230228" transform="matrix(-1 -1.74846e-07 -1.74846e-07 1 59.2096 30.4577)" fill="#61C3F2"/>
<rect width="3.07221" height="2.30227" rx="0.430476" transform="matrix(-1 -1.74846e-07 -1.74846e-07 1 65.3256 28.002)" fill="#61C3F2"/>
<rect width="2.15055" height="0.460455" rx="0.230228" transform="matrix(-1 -1.74846e-07 -1.74846e-07 1 64.8648 30.4577)" fill="#61C3F2"/>
<rect width="3.07221" height="2.30227" rx="0.430476" transform="matrix(-1 -1.74846e-07 -1.74846e-07 1 70.9806 28.002)" fill="#A6A6A6" fill-opacity="0.5"/>
<rect width="2.15055" height="0.460455" rx="0.230228" transform="matrix(-1 -1.74846e-07 -1.74846e-07 1 70.5198 30.4577)" fill="#A6A6A6" fill-opacity="0.5"/>
<rect width="3.07221" height="2.30227" rx="0.430476" transform="matrix(-1 -1.74846e-07 -1.74846e-07 1 76.6357 28.002)" fill="#A6A6A6" fill-opacity="0.5"/>
<rect width="2.15055" height="0.460455" rx="0.230228" transform="matrix(-1 -1.74846e-07 -1.74846e-07 1 76.1748 30.4577)" fill="#A6A6A6" fill-opacity="0.5"/>
<rect width="3.07221" height="2.30227" rx="0.430476" transform="matrix(-1 -1.74846e-07 -1.74846e-07 1 82.2908 28.002)" fill="#61C3F2"/>
<rect width="2.15055" height="0.460455" rx="0.230228" transform="matrix(-1 -1.74846e-07 -1.74846e-07 1 81.83 30.4577)" fill="#61C3F2"/>
<rect width="3.07221" height="2.30227" rx="0.430476" transform="matrix(-1 -1.74846e-07 -1.74846e-07 1 87.9458 28.002)" fill="#61C3F2"/>
<rect width="2.15055" height="0.460455" rx="0.230228" transform="matrix(-1 -1.74846e-07 -1.74846e-07 1 87.485 30.4577)" fill="#61C3F2"/>
<rect width="3.07221" height="2.30227" rx="0.430476" transform="matrix(-1 -1.74846e-07 -1.74846e-07 1 93.6009 28.002)" fill="#A6A6A6" fill-opacity="0.5"/>
<rect width="2.15055" height="0.460455" rx="0.230228" transform="matrix(-1 -1.74846e-07 -1.74846e-07 1 93.14 30.4577)" fill="#A6A6A6" fill-opacity="0.5"/>
<rect width="3.07221" height="2.30227" rx="0.430476" transform="matrix(-1 -1.74846e-07 -1.74846e-07 1 99.256 28.002)" fill="#A6A6A6" fill-opacity="0.5"/>
<rect width="2.15055" height="0.460455" rx="0.230228" transform="matrix(-1 -1.74846e-07 -1.74846e-07 1 98.7951 30.4577)" fill="#A6A6A6" fill-opacity="0.5"/>
<rect width="3.07221" height="2.30227" rx="0.430476" transform="matrix(-1 -1.74846e-07 -1.74846e-07 1 104.911 28.002)" fill="#15D2BC"/>
<rect width="2.15055" height="0.460455" rx="0.230228" transform="matrix(-1 -1.74846e-07 -1.74846e-07 1 104.45 30.4577)" fill="#15D2BC"/>
<rect width="3.07221" height="2.30227" rx="0.430476" transform="matrix(-1 -1.74846e-07 -1.74846e-07 1 110.566 28.002)" fill="#15D2BC"/>
<rect width="2.15055" height="0.460455" rx="0.230228" transform="matrix(-1 -1.74846e-07 -1.74846e-07 1 110.105 30.4577)" fill="#15D2BC"/>
<rect width="3.07221" height="2.30227" rx="0.430476" transform="matrix(-1 -1.74846e-07 -1.74846e-07 1 121.876 28.002)" fill="#A6A6A6" fill-opacity="0.5"/>
<rect width="2.15055" height="0.460455" rx="0.230228" transform="matrix(-1 -1.74846e-07 -1.74846e-07 1 121.415 30.4577)" fill="#A6A6A6" fill-opacity="0.5"/>
<rect width="3.07221" height="2.30227" rx="0.430476" transform="matrix(-1 -1.74846e-07 -1.74846e-07 1 127.531 28.002)" fill="#A6A6A6" fill-opacity="0.5"/>
<rect width="2.15055" height="0.460455" rx="0.230228" transform="matrix(-1 -1.74846e-07 -1.74846e-07 1 127.07 30.4577)" fill="#A6A6A6" fill-opacity="0.5"/>
<rect width="3.07221" height="2.30227" rx="0.430476" transform="matrix(-1 -1.74846e-07 -1.74846e-07 1 133.186 28.002)" fill="#61C3F2"/>
<rect width="2.15055" height="0.460455" rx="0.230228" transform="matrix(-1 -1.74846e-07 -1.74846e-07 1 132.725 30.4577)" fill="#61C3F2"/>
<rect width="3.07221" height="2.30227" rx="0.430476" transform="matrix(-1 -1.74846e-07 -1.74846e-07 1 138.841 28.002)" fill="#A6A6A6" fill-opacity="0.5"/>
<rect width="2.15055" height="0.460455" rx="0.230228" transform="matrix(-1 -1.74846e-07 -1.74846e-07 1 138.381 30.4577)" fill="#A6A6A6" fill-opacity="0.5"/>
<rect width="3.07221" height="2.30227" rx="0.430476" transform="matrix(-1 -1.74846e-07 -1.74846e-07 1 8.77481 34.7925)" fill="#A6A6A6" fill-opacity="0.5"/>
<rect width="2.15055" height="0.460455" rx="0.230228" transform="matrix(-1 -1.74846e-07 -1.74846e-07 1 8.314 37.2482)" fill="#A6A6A6" fill-opacity="0.5"/>
<rect width="3.07221" height="2.30227" rx="0.430476" transform="matrix(-1 -1.74846e-07 -1.74846e-07 1 14.43 34.7925)" fill="#A6A6A6" fill-opacity="0.5"/>
<rect width="2.15055" height="0.460455" rx="0.230228" transform="matrix(-1 -1.74846e-07 -1.74846e-07 1 13.9691 37.2482)" fill="#A6A6A6" fill-opacity="0.5"/>
<rect width="3.07221" height="2.30227" rx="0.430476" transform="matrix(-1 -1.74846e-07 -1.74846e-07 1 20.085 34.7925)" fill="#61C3F2"/>
<rect width="2.15055" height="0.460455" rx="0.230228" transform="matrix(-1 -1.74846e-07 -1.74846e-07 1 19.6242 37.2482)" fill="#61C3F2"/>
<rect width="3.07221" height="2.30227" rx="0.430476" transform="matrix(-1 -1.74846e-07 -1.74846e-07 1 25.74 34.7925)" fill="#A6A6A6" fill-opacity="0.5"/>
<rect width="2.15055" height="0.460455" rx="0.230228" transform="matrix(-1 -1.74846e-07 -1.74846e-07 1 25.2792 37.2482)" fill="#A6A6A6" fill-opacity="0.5"/>
<rect width="3.07221" height="2.30227" rx="0.430476" transform="matrix(-1 -1.74846e-07 -1.74846e-07 1 37.0502 34.7925)" fill="#A6A6A6" fill-opacity="0.5"/>
<rect width="2.15055" height="0.460455" rx="0.230228" transform="matrix(-1 -1.74846e-07 -1.74846e-07 1 36.5894 37.2482)" fill="#A6A6A6" fill-opacity="0.5"/>
<rect width="3.07221" height="2.30227" rx="0.430476" transform="matrix(-1 -1.74846e-07 -1.74846e-07 1 42.7052 34.7925)" fill="#A6A6A6" fill-opacity="0.5"/>
<rect width="2.15055" height="0.460455" rx="0.230228" transform="matrix(-1 -1.74846e-07 -1.74846e-07 1 42.2444 37.2482)" fill="#A6A6A6" fill-opacity="0.5"/>
<rect width="3.07221" height="2.30227" rx="0.430476" transform="matrix(-1 -1.74846e-07 -1.74846e-07 1 48.3604 34.7925)" fill="#61C3F2"/>
<rect width="2.15055" height="0.460455" rx="0.230228" transform="matrix(-1 -1.74846e-07 -1.74846e-07 1 47.8996 37.2482)" fill="#61C3F2"/>
<rect width="3.07221" height="2.30227" rx="0.430476" transform="matrix(-1 -1.74846e-07 -1.74846e-07 1 54.0154 34.7925)" fill="#61C3F2"/>
<rect width="2.15055" height="0.460455" rx="0.230228" transform="matrix(-1 -1.74846e-07 -1.74846e-07 1 53.5546 37.2482)" fill="#61C3F2"/>
<rect width="3.07221" height="2.30227" rx="0.430476" transform="matrix(-1 -1.74846e-07 -1.74846e-07 1 59.6704 34.7925)" fill="#A6A6A6" fill-opacity="0.5"/>
<rect width="2.15055" height="0.460455" rx="0.230228" transform="matrix(-1 -1.74846e-07 -1.74846e-07 1 59.2096 37.2482)" fill="#A6A6A6" fill-opacity="0.5"/>
<rect width="3.07221" height="2.30227" rx="0.430476" transform="matrix(-1 -1.74846e-07 -1.74846e-07 1 65.3256 34.7925)" fill="#A6A6A6" fill-opacity="0.5"/>
<rect width="2.15055" height="0.460455" rx="0.230228" transform="matrix(-1 -1.74846e-07 -1.74846e-07 1 64.8648 37.2482)" fill="#A6A6A6" fill-opacity="0.5"/>
<rect width="3.07221" height="2.30227" rx="0.430476" transform="matrix(-1 -1.74846e-07 -1.74846e-07 1 70.9806 34.7925)" fill="#61C3F2"/>
<rect width="2.15055" height="0.460455" rx="0.230228" transform="matrix(-1 -1.74846e-07 -1.74846e-07 1 70.5198 37.2482)" fill="#61C3F2"/>
<rect width="3.07221" height="2.30227" rx="0.430476" transform="matrix(-1 -1.74846e-07 -1.74846e-07 1 76.6357 34.7925)" fill="#61C3F2"/>
<rect width="2.15055" height="0.460455" rx="0.230228" transform="matrix(-1 -1.74846e-07 -1.74846e-07 1 76.1748 37.2482)" fill="#61C3F2"/>
<rect width="3.07221" height="2.30227" rx="0.430476" transform="matrix(-1 -1.74846e-07 -1.74846e-07 1 82.2908 34.7925)" fill="#A6A6A6" fill-opacity="0.5"/>
<rect width="2.15055" height="0.460455" rx="0.230228" transform="matrix(-1 -1.74846e-07 -1.74846e-07 1 81.83 37.2482)" fill="#A6A6A6" fill-opacity="0.5"/>
<rect width="3.07221" height="2.30227" rx="0.430476" transform="matrix(-1 -1.74846e-07 -1.74846e-07 1 87.9458 34.7925)" fill="#A6A6A6" fill-opacity="0.5"/>
<rect width="2.15055" height="0.460455" rx="0.230228" transform="matrix(-1 -1.74846e-07 -1.74846e-07 1 87.485 37.2482)" fill="#A6A6A6" fill-opacity="0.5"/>
<rect width="3.07221" height="2.30227" rx="0.430476" transform="matrix(-1 -1.74846e-07 -1.74846e-07 1 93.6009 34.7925)" fill="#61C3F2"/>
<rect width="2.15055" height="0.460455" rx="0.230228" transform="matrix(-1 -1.74846e-07 -1.74846e-07 1 93.14 37.2482)" fill="#61C3F2"/>
<rect width="3.07221" height="2.30227" rx="0.430476" transform="matrix(-1 -1.74846e-07 -1.74846e-07 1 99.256 34.7925)" fill="#61C3F2"/>
<rect width="2.15055" height="0.460455" rx="0.230228" transform="matrix(-1 -1.74846e-07 -1.74846e-07 1 98.7951 37.2482)" fill="#61C3F2"/>
<rect width="3.07221" height="2.30227" rx="0.430476" transform="matrix(-1 -1.74846e-07 -1.74846e-07 1 104.911 34.7925)" fill="#A6A6A6" fill-opacity="0.5"/>
<rect width="2.15055" height="0.460455" rx="0.230228" transform="matrix(-1 -1.74846e-07 -1.74846e-07 1 104.45 37.2482)" fill="#A6A6A6" fill-opacity="0.5"/>
<rect width="3.07221" height="2.30227" rx="0.430476" transform="matrix(-1 -1.74846e-07 -1.74846e-07 1 110.566 34.7925)" fill="#A6A6A6" fill-opacity="0.5"/>
<rect width="2.15055" height="0.460455" rx="0.230228" transform="matrix(-1 -1.74846e-07 -1.74846e-07 1 110.105 37.2483)" fill="#A6A6A6" fill-opacity="0.5"/>
<rect width="3.07221" height="2.30227" rx="0.430476" transform="matrix(-1 -1.74846e-07 -1.74846e-07 1 121.876 34.7925)" fill="#A6A6A6" fill-opacity="0.5"/>
<rect width="2.15055" height="0.460455" rx="0.230228" transform="matrix(-1 -1.74846e-07 -1.74846e-07 1 121.415 37.2483)" fill="#A6A6A6" fill-opacity="0.5"/>
<rect width="3.07221" height="2.30227" rx="0.430476" transform="matrix(-1 -1.74846e-07 -1.74846e-07 1 127.531 34.7925)" fill="#61C3F2"/>
<rect width="2.15055" height="0.460455" rx="0.230228" transform="matrix(-1 -1.74846e-07 -1.74846e-07 1 127.07 37.2483)" fill="#61C3F2"/>
<rect width="3.07221" height="2.30227" rx="0.430476" transform="matrix(-1 -1.74846e-07 -1.74846e-07 1 133.186 34.7925)" fill="#A6A6A6" fill-opacity="0.5"/>
<rect width="2.15055" height="0.460455" rx="0.230228" transform="matrix(-1 -1.74846e-07 -1.74846e-07 1 132.725 37.2483)" fill="#A6A6A6" fill-opacity="0.5"/>
<rect width="3.07221" height="2.30227" rx="0.430476" transform="matrix(-1 -1.74846e-07 -1.74846e-07 1 138.841 34.7925)" fill="#A6A6A6" fill-opacity="0.5"/>
<rect width="2.15055" height="0.460455" rx="0.230228" transform="matrix(-1 -1.74846e-07 -1.74846e-07 1 138.381 37.2483)" fill="#A6A6A6" fill-opacity="0.5"/>
<rect width="3.07221" height="2.30227" rx="0.430476" transform="matrix(-1 -1.74846e-07 -1.74846e-07 1 3.11978 41.583)" fill="#61C3F2"/>
<rect width="2.15055" height="0.460455" rx="0.230228" transform="matrix(-1 -1.74846e-07 -1.74846e-07 1 2.65897 44.0388)" fill="#61C3F2"/>
<rect width="3.07221" height="2.30227" rx="0.430476" transform="matrix(-1 -1.74846e-07 -1.74846e-07 1 8.77481 41.583)" fill="#61C3F2"/>
<rect width="2.15055" height="0.460455" rx="0.230228" transform="matrix(-1 -1.74846e-07 -1.74846e-07 1 8.314 44.0388)" fill="#61C3F2"/>
<rect width="3.07221" height="2.30227" rx="0.430476" transform="matrix(-1 -1.74846e-07 -1.74846e-07 1 14.43 41.583)" fill="#A6A6A6" fill-opacity="0.5"/>
<rect width="2.15055" height="0.460455" rx="0.230228" transform="matrix(-1 -1.74846e-07 -1.74846e-07 1 13.9691 44.0388)" fill="#A6A6A6" fill-opacity="0.5"/>
<rect width="3.07221" height="2.30227" rx="0.430476" transform="matrix(-1 -1.74846e-07 -1.74846e-07 1 20.085 41.583)" fill="#A6A6A6" fill-opacity="0.5"/>
<rect width="2.15055" height="0.460455" rx="0.230228" transform="matrix(-1 -1.74846e-07 -1.74846e-07 1 19.6242 44.0388)" fill="#A6A6A6" fill-opacity="0.5"/>
<rect width="3.07221" height="2.30227" rx="0.430476" transform="matrix(-1 -1.74846e-07 -1.74846e-07 1 25.74 41.583)" fill="#A6A6A6" fill-opacity="0.5"/>
<rect width="2.15055" height="0.460455" rx="0.230228" transform="matrix(-1 -1.74846e-07 -1.74846e-07 1 25.2792 44.0388)" fill="#A6A6A6" fill-opacity="0.5"/>
<rect width="3.07221" height="2.30227" rx="0.430476" transform="matrix(-1 -1.74846e-07 -1.74846e-07 1 37.0502 41.583)" fill="#E26CA5"/>
<rect width="2.15055" height="0.460455" rx="0.230228" transform="matrix(-1 -1.74846e-07 -1.74846e-07 1 36.5894 44.0388)" fill="#E26CA5"/>
<rect width="3.07221" height="2.30227" rx="0.430476" transform="matrix(-1 -1.74846e-07 -1.74846e-07 1 42.7052 41.583)" fill="#E26CA5"/>
<rect width="2.15055" height="0.460455" rx="0.230228" transform="matrix(-1 -1.74846e-07 -1.74846e-07 1 42.2444 44.0388)" fill="#E26CA5"/>
<rect width="3.07221" height="2.30227" rx="0.430476" transform="matrix(-1 -1.74846e-07 -1.74846e-07 1 48.3604 41.583)" fill="#A6A6A6" fill-opacity="0.5"/>
<rect width="2.15055" height="0.460455" rx="0.230228" transform="matrix(-1 -1.74846e-07 -1.74846e-07 1 47.8996 44.0388)" fill="#A6A6A6" fill-opacity="0.5"/>
<rect width="3.07221" height="2.30227" rx="0.430476" transform="matrix(-1 -1.74846e-07 -1.74846e-07 1 54.0154 41.583)" fill="#A6A6A6" fill-opacity="0.5"/>
<rect width="2.15055" height="0.460455" rx="0.230228" transform="matrix(-1 -1.74846e-07 -1.74846e-07 1 53.5546 44.0388)" fill="#A6A6A6" fill-opacity="0.5"/>
<rect width="3.07221" height="2.30227" rx="0.430476" transform="matrix(-1 -1.74846e-07 -1.74846e-07 1 59.6704 41.583)" fill="#61C3F2"/>
<rect width="2.15055" height="0.460455" rx="0.230228" transform="matrix(-1 -1.74846e-07 -1.74846e-07 1 59.2096 44.0388)" fill="#61C3F2"/>
<rect width="3.07221" height="2.30227" rx="0.430476" transform="matrix(-1 -1.74846e-07 -1.74846e-07 1 65.3256 41.583)" fill="#61C3F2"/>
<rect width="2.15055" height="0.460455" rx="0.230228" transform="matrix(-1 -1.74846e-07 -1.74846e-07 1 64.8648 44.0388)" fill="#61C3F2"/>
<rect width="3.07221" height="2.30227" rx="0.430476" transform="matrix(-1 -1.74846e-07 -1.74846e-07 1 70.9806 41.583)" fill="#A6A6A6" fill-opacity="0.5"/>
<rect width="2.15055" height="0.460455" rx="0.230228" transform="matrix(-1 -1.74846e-07 -1.74846e-07 1 70.5198 44.0388)" fill="#A6A6A6" fill-opacity="0.5"/>
<rect width="3.07221" height="2.30227" rx="0.430476" transform="matrix(-1 -1.74846e-07 -1.74846e-07 1 76.6357 41.583)" fill="#A6A6A6" fill-opacity="0.5"/>
<rect width="2.15055" height="0.460455" rx="0.230228" transform="matrix(-1 -1.74846e-07 -1.74846e-07 1 76.1748 44.0388)" fill="#A6A6A6" fill-opacity="0.5"/>
<rect width="3.07221" height="2.30227" rx="0.430476" transform="matrix(-1 -1.74846e-07 -1.74846e-07 1 82.2908 41.583)" fill="#61C3F2"/>
<rect width="2.15055" height="0.460455" rx="0.230228" transform="matrix(-1 -1.74846e-07 -1.74846e-07 1 81.83 44.0388)" fill="#61C3F2"/>
<rect width="3.07221" height="2.30227" rx="0.430476" transform="matrix(-1 -1.74846e-07 -1.74846e-07 1 87.9458 41.583)" fill="#61C3F2"/>
<rect width="2.15055" height="0.460455" rx="0.230228" transform="matrix(-1 -1.74846e-07 -1.74846e-07 1 87.485 44.0388)" fill="#61C3F2"/>
<rect width="3.07221" height="2.30227" rx="0.430476" transform="matrix(-1 -1.74846e-07 -1.74846e-07 1 93.6009 41.583)" fill="#A6A6A6" fill-opacity="0.5"/>
<rect width="2.15055" height="0.460455" rx="0.230228" transform="matrix(-1 -1.74846e-07 -1.74846e-07 1 93.14 44.0388)" fill="#A6A6A6" fill-opacity="0.5"/>
<rect width="3.07221" height="2.30227" rx="0.430476" transform="matrix(-1 -1.74846e-07 -1.74846e-07 1 99.256 41.583)" fill="#A6A6A6" fill-opacity="0.5"/>
<rect width="2.15055" height="0.460455" rx="0.230228" transform="matrix(-1 -1.74846e-07 -1.74846e-07 1 98.7951 44.0388)" fill="#A6A6A6" fill-opacity="0.5"/>
<rect width="3.07221" height="2.30227" rx="0.430476" transform="matrix(-1 -1.74846e-07 -1.74846e-07 1 104.911 41.583)" fill="#E26CA5"/>
<rect width="2.15055" height="0.460455" rx="0.230228" transform="matrix(-1 -1.74846e-07 -1.74846e-07 1 104.45 44.0388)" fill="#E26CA5"/>
<rect width="3.07221" height="2.30227" rx="0.430476" transform="matrix(-1 -1.74846e-07 -1.74846e-07 1 110.566 41.583)" fill="#E26CA5"/>
<rect width="2.15055" height="0.460455" rx="0.230228" transform="matrix(-1 -1.74846e-07 -1.74846e-07 1 110.105 44.0388)" fill="#E26CA5"/>
<rect width="3.07221" height="2.30227" rx="0.430476" transform="matrix(-1 -1.74846e-07 -1.74846e-07 1 121.876 41.583)" fill="#A6A6A6" fill-opacity="0.5"/>
<rect width="2.15055" height="0.460455" rx="0.230228" transform="matrix(-1 -1.74846e-07 -1.74846e-07 1 121.415 44.0388)" fill="#A6A6A6" fill-opacity="0.5"/>
<rect width="3.07221" height="2.30227" rx="0.430476" transform="matrix(-1 -1.74846e-07 -1.74846e-07 1 127.531 41.583)" fill="#A6A6A6" fill-opacity="0.5"/>
<rect width="2.15055" height="0.460455" rx="0.230228" transform="matrix(-1 -1.74846e-07 -1.74846e-07 1 127.07 44.0388)" fill="#A6A6A6" fill-opacity="0.5"/>
<rect width="3.07221" height="2.30227" rx="0.430476" transform="matrix(-1 -1.74846e-07 -1.74846e-07 1 133.186 41.583)" fill="#A6A6A6" fill-opacity="0.5"/>
<rect width="2.15055" height="0.460455" rx="0.230228" transform="matrix(-1 -1.74846e-07 -1.74846e-07 1 132.725 44.0388)" fill="#A6A6A6" fill-opacity="0.5"/>
<rect width="3.07221" height="2.30227" rx="0.430476" transform="matrix(-1 -1.74846e-07 -1.74846e-07 1 138.841 41.583)" fill="#61C3F2"/>
<rect width="2.15055" height="0.460455" rx="0.230228" transform="matrix(-1 -1.74846e-07 -1.74846e-07 1 138.381 44.0388)" fill="#61C3F2"/>
<rect width="3.07221" height="2.30227" rx="0.430476" transform="matrix(-1 -1.74846e-07 -1.74846e-07 1 144.496 41.583)" fill="#61C3F2"/>
<rect width="2.15055" height="0.460455" rx="0.230228" transform="matrix(-1 -1.74846e-07 -1.74846e-07 1 144.036 44.0388)" fill="#61C3F2"/>
<rect width="3.07221" height="2.30227" rx="0.430476" transform="matrix(-1 -1.74846e-07 -1.74846e-07 1 3.11978 48.3735)" fill="#A6A6A6" fill-opacity="0.5"/>
<rect width="2.15055" height="0.460455" rx="0.230228" transform="matrix(-1 -1.74846e-07 -1.74846e-07 1 2.65897 50.8293)" fill="#A6A6A6" fill-opacity="0.5"/>
<rect width="3.07221" height="2.30227" rx="0.430476" transform="matrix(-1 -1.74846e-07 -1.74846e-07 1 8.77481 48.3735)" fill="#A6A6A6" fill-opacity="0.5"/>
<rect width="2.15055" height="0.460455" rx="0.230228" transform="matrix(-1 -1.74846e-07 -1.74846e-07 1 8.314 50.8293)" fill="#A6A6A6" fill-opacity="0.5"/>
<rect width="3.07221" height="2.30227" rx="0.430476" transform="matrix(-1 -1.74846e-07 -1.74846e-07 1 14.43 48.3735)" fill="#61C3F2"/>
<rect width="2.15055" height="0.460455" rx="0.230228" transform="matrix(-1 -1.74846e-07 -1.74846e-07 1 13.9691 50.8293)" fill="#61C3F2"/>
<rect width="3.07221" height="2.30227" rx="0.430476" transform="matrix(-1 -1.74846e-07 -1.74846e-07 1 20.085 48.3735)" fill="#61C3F2"/>
<rect width="2.15055" height="0.460455" rx="0.230228" transform="matrix(-1 -1.74846e-07 -1.74846e-07 1 19.6242 50.8293)" fill="#61C3F2"/>
<rect width="3.07221" height="2.30227" rx="0.430476" transform="matrix(-1 -1.74846e-07 -1.74846e-07 1 25.74 48.3735)" fill="#A6A6A6" fill-opacity="0.5"/>
<rect width="2.15055" height="0.460455" rx="0.230228" transform="matrix(-1 -1.74846e-07 -1.74846e-07 1 25.2792 50.8293)" fill="#A6A6A6" fill-opacity="0.5"/>
<rect width="3.07221" height="2.30227" rx="0.430476" transform="matrix(-1 -1.74846e-07 -1.74846e-07 1 37.0502 48.3735)" fill="#A6A6A6" fill-opacity="0.5"/>
<rect width="2.15055" height="0.460455" rx="0.230228" transform="matrix(-1 -1.74846e-07 -1.74846e-07 1 36.5894 50.8293)" fill="#A6A6A6" fill-opacity="0.5"/>
<rect width="3.07221" height="2.30227" rx="0.430476" transform="matrix(-1 -1.74846e-07 -1.74846e-07 1 42.7052 48.3735)" fill="#A6A6A6" fill-opacity="0.5"/>
<rect width="2.15055" height="0.460455" rx="0.230228" transform="matrix(-1 -1.74846e-07 -1.74846e-07 1 42.2444 50.8293)" fill="#A6A6A6" fill-opacity="0.5"/>
<rect width="3.07221" height="2.30227" rx="0.430476" transform="matrix(-1 -1.74846e-07 -1.74846e-07 1 48.3604 48.3735)" fill="#61C3F2"/>
<rect width="2.15055" height="0.460455" rx="0.230228" transform="matrix(-1 -1.74846e-07 -1.74846e-07 1 47.8996 50.8293)" fill="#61C3F2"/>
<rect width="3.07221" height="2.30227" rx="0.430476" transform="matrix(-1 -1.74846e-07 -1.74846e-07 1 54.0154 48.3735)" fill="#61C3F2"/>
<rect width="2.15055" height="0.460455" rx="0.230228" transform="matrix(-1 -1.74846e-07 -1.74846e-07 1 53.5546 50.8293)" fill="#61C3F2"/>
<rect width="3.07221" height="2.30227" rx="0.430476" transform="matrix(-1 -1.74846e-07 -1.74846e-07 1 59.6704 48.3735)" fill="#A6A6A6" fill-opacity="0.5"/>
<rect width="2.15055" height="0.460455" rx="0.230228" transform="matrix(-1 -1.74846e-07 -1.74846e-07 1 59.2096 50.8293)" fill="#A6A6A6" fill-opacity="0.5"/>
<rect width="3.07221" height="2.30227" rx="0.430476" transform="matrix(-1 -1.74846e-07 -1.74846e-07 1 65.3256 48.3735)" fill="#A6A6A6" fill-opacity="0.5"/>
<rect width="2.15055" height="0.460455" rx="0.230228" transform="matrix(-1 -1.74846e-07 -1.74846e-07 1 64.8648 50.8293)" fill="#A6A6A6" fill-opacity="0.5"/>
<rect width="3.07221" height="2.30227" rx="0.430476" transform="matrix(-1 -1.74846e-07 -1.74846e-07 1 70.9806 48.3735)" fill="#564CA3"/>
<rect width="2.15055" height="0.460455" rx="0.230228" transform="matrix(-1 -1.74846e-07 -1.74846e-07 1 70.5198 50.8293)" fill="#564CA3"/>
<rect width="3.07221" height="2.30227" rx="0.430476" transform="matrix(-1 -1.74846e-07 -1.74846e-07 1 76.6357 48.3735)" fill="#564CA3"/>
<rect width="2.15055" height="0.460455" rx="0.230228" transform="matrix(-1 -1.74846e-07 -1.74846e-07 1 76.1748 50.8293)" fill="#564CA3"/>
<rect width="3.07221" height="2.30227" rx="0.430476" transform="matrix(-1 -1.74846e-07 -1.74846e-07 1 82.2908 48.3735)" fill="#A6A6A6" fill-opacity="0.5"/>
<rect width="2.15055" height="0.460455" rx="0.230228" transform="matrix(-1 -1.74846e-07 -1.74846e-07 1 81.83 50.8293)" fill="#A6A6A6" fill-opacity="0.5"/>
<rect width="3.07221" height="2.30227" rx="0.430476" transform="matrix(-1 -1.74846e-07 -1.74846e-07 1 87.9458 48.3735)" fill="#A6A6A6" fill-opacity="0.5"/>
<rect width="2.15055" height="0.460455" rx="0.230228" transform="matrix(-1 -1.74846e-07 -1.74846e-07 1 87.485 50.8293)" fill="#A6A6A6" fill-opacity="0.5"/>
<rect width="3.07221" height="2.30227" rx="0.430476" transform="matrix(-1 -1.74846e-07 -1.74846e-07 1 93.6009 48.3735)" fill="#61C3F2"/>
<rect width="2.15055" height="0.460455" rx="0.230228" transform="matrix(-1 -1.74846e-07 -1.74846e-07 1 93.14 50.8293)" fill="#61C3F2"/>
<rect width="3.07221" height="2.30227" rx="0.430476" transform="matrix(-1 -1.74846e-07 -1.74846e-07 1 99.256 48.3735)" fill="#61C3F2"/>
<rect width="2.15055" height="0.460455" rx="0.230228" transform="matrix(-1 -1.74846e-07 -1.74846e-07 1 98.7951 50.8293)" fill="#61C3F2"/>
<rect width="3.07221" height="2.30227" rx="0.430476" transform="matrix(-1 -1.74846e-07 -1.74846e-07 1 104.911 48.3735)" fill="#A6A6A6" fill-opacity="0.5"/>
<rect width="2.15055" height="0.460455" rx="0.230228" transform="matrix(-1 -1.74846e-07 -1.74846e-07 1 104.45 50.8293)" fill="#A6A6A6" fill-opacity="0.5"/>
<rect width="3.07221" height="2.30227" rx="0.430476" transform="matrix(-1 -1.74846e-07 -1.74846e-07 1 110.566 48.3735)" fill="#A6A6A6" fill-opacity="0.5"/>
<rect width="2.15055" height="0.460455" rx="0.230228" transform="matrix(-1 -1.74846e-07 -1.74846e-07 1 110.105 50.8293)" fill="#A6A6A6" fill-opacity="0.5"/>
<rect width="3.07221" height="2.30227" rx="0.430476" transform="matrix(-1 -1.74846e-07 -1.74846e-07 1 121.876 48.3735)" fill="#A6A6A6" fill-opacity="0.5"/>
<rect width="2.15055" height="0.460455" rx="0.230228" transform="matrix(-1 -1.74846e-07 -1.74846e-07 1 121.415 50.8293)" fill="#A6A6A6" fill-opacity="0.5"/>
<rect width="3.07221" height="2.30227" rx="0.430476" transform="matrix(-1 -1.74846e-07 -1.74846e-07 1 127.531 48.3735)" fill="#61C3F2"/>
<rect width="2.15055" height="0.460455" rx="0.230228" transform="matrix(-1 -1.74846e-07 -1.74846e-07 1 127.07 50.8293)" fill="#61C3F2"/>
<rect width="3.07221" height="2.30227" rx="0.430476" transform="matrix(-1 -1.74846e-07 -1.74846e-07 1 133.186 48.3735)" fill="#61C3F2"/>
<rect width="2.15055" height="0.460455" rx="0.230228" transform="matrix(-1 -1.74846e-07 -1.74846e-07 1 132.725 50.8293)" fill="#61C3F2"/>
<rect width="3.07221" height="2.30227" rx="0.430476" transform="matrix(-1 -1.74846e-07 -1.74846e-07 1 138.841 48.3735)" fill="#A6A6A6" fill-opacity="0.5"/>
<rect width="2.15055" height="0.460455" rx="0.230228" transform="matrix(-1 -1.74846e-07 -1.74846e-07 1 138.381 50.8293)" fill="#A6A6A6" fill-opacity="0.5"/>
<rect width="3.07221" height="2.30227" rx="0.430476" transform="matrix(-1 -1.74846e-07 -1.74846e-07 1 144.496 48.3735)" fill="#A6A6A6" fill-opacity="0.5"/>
<rect width="2.15055" height="0.460455" rx="0.230228" transform="matrix(-1 -1.74846e-07 -1.74846e-07 1 144.036 50.8293)" fill="#A6A6A6" fill-opacity="0.5"/>
<rect width="3.07221" height="2.30227" rx="0.430476" transform="matrix(-1 -1.74846e-07 -1.74846e-07 1 3.11978 55.164)" fill="#61C3F2"/>
<rect width="2.15055" height="0.460455" rx="0.230228" transform="matrix(-1 -1.74846e-07 -1.74846e-07 1 2.65897 57.6198)" fill="#61C3F2"/>
<rect width="3.07221" height="2.30227" rx="0.430476" transform="matrix(-1 -1.74846e-07 -1.74846e-07 1 8.77481 55.164)" fill="#61C3F2"/>
<rect width="2.15055" height="0.460455" rx="0.230228" transform="matrix(-1 -1.74846e-07 -1.74846e-07 1 8.314 57.6198)" fill="#61C3F2"/>
<rect width="3.07221" height="2.30227" rx="0.430476" transform="matrix(-1 -1.74846e-07 -1.74846e-07 1 14.43 55.164)" fill="#A6A6A6" fill-opacity="0.5"/>
<rect width="2.15055" height="0.460455" rx="0.230228" transform="matrix(-1 -1.74846e-07 -1.74846e-07 1 13.9691 57.6198)" fill="#A6A6A6" fill-opacity="0.5"/>
<rect width="3.07221" height="2.30227" rx="0.430476" transform="matrix(-1 -1.74846e-07 -1.74846e-07 1 20.085 55.164)" fill="#A6A6A6" fill-opacity="0.5"/>
<rect width="2.15055" height="0.460455" rx="0.230228" transform="matrix(-1 -1.74846e-07 -1.74846e-07 1 19.6242 57.6198)" fill="#A6A6A6" fill-opacity="0.5"/>
<rect width="3.07221" height="2.30227" rx="0.430476" transform="matrix(-1 -1.74846e-07 -1.74846e-07 1 25.74 55.164)" fill="#A6A6A6" fill-opacity="0.5"/>
<rect width="2.15055" height="0.460455" rx="0.230228" transform="matrix(-1 -1.74846e-07 -1.74846e-07 1 25.2792 57.6198)" fill="#A6A6A6" fill-opacity="0.5"/>
<rect width="3.07221" height="2.30227" rx="0.430476" transform="matrix(-1 -1.74846e-07 -1.74846e-07 1 37.0502 55.164)" fill="#15D2BC"/>
<rect width="2.15055" height="0.460455" rx="0.230228" transform="matrix(-1 -1.74846e-07 -1.74846e-07 1 36.5894 57.6198)" fill="#15D2BC"/>
<rect width="3.07221" height="2.30227" rx="0.430476" transform="matrix(-1 -1.74846e-07 -1.74846e-07 1 42.7052 55.164)" fill="#15D2BC"/>
<rect width="2.15055" height="0.460455" rx="0.230228" transform="matrix(-1 -1.74846e-07 -1.74846e-07 1 42.2444 57.6198)" fill="#15D2BC"/>
<rect width="3.07221" height="2.30227" rx="0.430476" transform="matrix(-1 -1.74846e-07 -1.74846e-07 1 48.3604 55.164)" fill="#A6A6A6" fill-opacity="0.5"/>
<rect width="2.15055" height="0.460455" rx="0.230228" transform="matrix(-1 -1.74846e-07 -1.74846e-07 1 47.8996 57.6198)" fill="#A6A6A6" fill-opacity="0.5"/>
<rect width="3.07221" height="2.30227" rx="0.430476" transform="matrix(-1 -1.74846e-07 -1.74846e-07 1 54.0154 55.164)" fill="#A6A6A6" fill-opacity="0.5"/>
<rect width="2.15055" height="0.460455" rx="0.230228" transform="matrix(-1 -1.74846e-07 -1.74846e-07 1 53.5546 57.6198)" fill="#A6A6A6" fill-opacity="0.5"/>
<rect width="3.07221" height="2.30227" rx="0.430476" transform="matrix(-1 -1.74846e-07 -1.74846e-07 1 59.6704 55.164)" fill="#61C3F2"/>
<rect width="2.15055" height="0.460455" rx="0.230228" transform="matrix(-1 -1.74846e-07 -1.74846e-07 1 59.2096 57.6198)" fill="#61C3F2"/>
<rect width="3.07221" height="2.30227" rx="0.430476" transform="matrix(-1 -1.74846e-07 -1.74846e-07 1 65.3256 55.164)" fill="#61C3F2"/>
<rect width="2.15055" height="0.460455" rx="0.230228" transform="matrix(-1 -1.74846e-07 -1.74846e-07 1 64.8648 57.6198)" fill="#61C3F2"/>
<rect width="3.07221" height="2.30227" rx="0.430476" transform="matrix(-1 -1.74846e-07 -1.74846e-07 1 70.9806 55.164)" fill="#A6A6A6" fill-opacity="0.5"/>
<rect width="2.15055" height="0.460455" rx="0.230228" transform="matrix(-1 -1.74846e-07 -1.74846e-07 1 70.5198 57.6198)" fill="#A6A6A6" fill-opacity="0.5"/>
<rect width="3.07221" height="2.30227" rx="0.430476" transform="matrix(-1 -1.74846e-07 -1.74846e-07 1 76.6357 55.164)" fill="#A6A6A6" fill-opacity="0.5"/>
<rect width="2.15055" height="0.460455" rx="0.230228" transform="matrix(-1 -1.74846e-07 -1.74846e-07 1 76.1748 57.6198)" fill="#A6A6A6" fill-opacity="0.5"/>
<rect width="3.07221" height="2.30227" rx="0.430476" transform="matrix(-1 -1.74846e-07 -1.74846e-07 1 82.2908 55.164)" fill="#61C3F2"/>
<rect width="2.15055" height="0.460455" rx="0.230228" transform="matrix(-1 -1.74846e-07 -1.74846e-07 1 81.83 57.6198)" fill="#61C3F2"/>
<rect width="3.07221" height="2.30227" rx="0.430476" transform="matrix(-1 -1.74846e-07 -1.74846e-07 1 87.9458 55.164)" fill="#61C3F2"/>
<rect width="2.15055" height="0.460455" rx="0.230228" transform="matrix(-1 -1.74846e-07 -1.74846e-07 1 87.485 57.6198)" fill="#61C3F2"/>
<rect width="3.07221" height="2.30227" rx="0.430476" transform="matrix(-1 -1.74846e-07 -1.74846e-07 1 93.6009 55.164)" fill="#A6A6A6" fill-opacity="0.5"/>
<rect width="2.15055" height="0.460455" rx="0.230228" transform="matrix(-1 -1.74846e-07 -1.74846e-07 1 93.14 57.6198)" fill="#A6A6A6" fill-opacity="0.5"/>
<rect width="3.07221" height="2.30227" rx="0.430476" transform="matrix(-1 -1.74846e-07 -1.74846e-07 1 99.256 55.164)" fill="#A6A6A6" fill-opacity="0.5"/>
<rect width="2.15055" height="0.460455" rx="0.230228" transform="matrix(-1 -1.74846e-07 -1.74846e-07 1 98.7951 57.6198)" fill="#A6A6A6" fill-opacity="0.5"/>
<rect width="3.07221" height="2.30227" rx="0.430476" transform="matrix(-1 -1.74846e-07 -1.74846e-07 1 104.911 55.164)" fill="#15D2BC"/>
<rect width="2.15055" height="0.460455" rx="0.230228" transform="matrix(-1 -1.74846e-07 -1.74846e-07 1 104.45 57.6198)" fill="#15D2BC"/>
<rect width="3.07221" height="2.30227" rx="0.430476" transform="matrix(-1 -1.74846e-07 -1.74846e-07 1 110.566 55.164)" fill="#15D2BC"/>
<rect width="2.15055" height="0.460455" rx="0.230228" transform="matrix(-1 -1.74846e-07 -1.74846e-07 1 110.105 57.6198)" fill="#15D2BC"/>
<rect width="3.07221" height="2.30227" rx="0.430476" transform="matrix(-1 -1.74846e-07 -1.74846e-07 1 121.876 55.164)" fill="#A6A6A6" fill-opacity="0.5"/>
<rect width="2.15055" height="0.460455" rx="0.230228" transform="matrix(-1 -1.74846e-07 -1.74846e-07 1 121.415 57.6198)" fill="#A6A6A6" fill-opacity="0.5"/>
<rect width="3.07221" height="2.30227" rx="0.430476" transform="matrix(-1 -1.74846e-07 -1.74846e-07 1 127.531 55.164)" fill="#A6A6A6" fill-opacity="0.5"/>
<rect width="2.15055" height="0.460455" rx="0.230228" transform="matrix(-1 -1.74846e-07 -1.74846e-07 1 127.07 57.6198)" fill="#A6A6A6" fill-opacity="0.5"/>
<rect width="3.07221" height="2.30227" rx="0.430476" transform="matrix(-1 -1.74846e-07 -1.74846e-07 1 133.186 55.164)" fill="#A6A6A6" fill-opacity="0.5"/>
<rect width="2.15055" height="0.460455" rx="0.230228" transform="matrix(-1 -1.74846e-07 -1.74846e-07 1 132.725 57.6198)" fill="#A6A6A6" fill-opacity="0.5"/>
<rect width="3.07221" height="2.30227" rx="0.430476" transform="matrix(-1 -1.74846e-07 -1.74846e-07 1 138.841 55.164)" fill="#61C3F2"/>
<rect width="2.15055" height="0.460455" rx="0.230228" transform="matrix(-1 -1.74846e-07 -1.74846e-07 1 138.381 57.6198)" fill="#61C3F2"/>
<rect width="3.07221" height="2.30227" rx="0.430476" transform="matrix(-1 -1.74846e-07 -1.74846e-07 1 144.496 55.164)" fill="#61C3F2"/>
<rect width="2.15055" height="0.460455" rx="0.230228" transform="matrix(-1 -1.74846e-07 -1.74846e-07 1 144.036 57.6198)" fill="#61C3F2"/>
<rect width="3.07221" height="2.30227" rx="0.430476" transform="matrix(-1 -1.74846e-07 -1.74846e-07 1 3.11978 61.9545)" fill="#A6A6A6" fill-opacity="0.5"/>
<rect width="2.15055" height="0.460455" rx="0.230228" transform="matrix(-1 -1.74846e-07 -1.74846e-07 1 2.65897 64.4103)" fill="#A6A6A6" fill-opacity="0.5"/>
<rect width="3.07221" height="2.30227" rx="0.430476" transform="matrix(-1 -1.74846e-07 -1.74846e-07 1 8.77481 61.9545)" fill="#A6A6A6" fill-opacity="0.5"/>
<rect width="2.15055" height="0.460455" rx="0.230228" transform="matrix(-1 -1.74846e-07 -1.74846e-07 1 8.314 64.4103)" fill="#A6A6A6" fill-opacity="0.5"/>
<rect width="3.07221" height="2.30227" rx="0.430476" transform="matrix(-1 -1.74846e-07 -1.74846e-07 1 14.43 61.9545)" fill="#61C3F2"/>
<rect width="2.15055" height="0.460455" rx="0.230228" transform="matrix(-1 -1.74846e-07 -1.74846e-07 1 13.9691 64.4103)" fill="#61C3F2"/>
<rect width="3.07221" height="2.30227" rx="0.430476" transform="matrix(-1 -1.74846e-07 -1.74846e-07 1 20.085 61.9545)" fill="#61C3F2"/>
<rect width="2.15055" height="0.460455" rx="0.230228" transform="matrix(-1 -1.74846e-07 -1.74846e-07 1 19.6242 64.4103)" fill="#61C3F2"/>
<rect width="3.07221" height="2.30227" rx="0.430476" transform="matrix(-1 -1.74846e-07 -1.74846e-07 1 25.74 61.9545)" fill="#A6A6A6" fill-opacity="0.5"/>
<rect width="2.15055" height="0.460455" rx="0.230228" transform="matrix(-1 -1.74846e-07 -1.74846e-07 1 25.2792 64.4103)" fill="#A6A6A6" fill-opacity="0.5"/>
<rect width="3.07221" height="2.30227" rx="0.430476" transform="matrix(-1 -1.74846e-07 -1.74846e-07 1 37.0502 61.9545)" fill="#A6A6A6" fill-opacity="0.5"/>
<rect width="2.15055" height="0.460455" rx="0.230228" transform="matrix(-1 -1.74846e-07 -1.74846e-07 1 36.5894 64.4103)" fill="#A6A6A6" fill-opacity="0.5"/>
<rect width="3.07221" height="2.30227" rx="0.430476" transform="matrix(-1 -1.74846e-07 -1.74846e-07 1 42.7052 61.9545)" fill="#A6A6A6" fill-opacity="0.5"/>
<rect width="2.15055" height="0.460455" rx="0.230228" transform="matrix(-1 -1.74846e-07 -1.74846e-07 1 42.2444 64.4103)" fill="#A6A6A6" fill-opacity="0.5"/>
<rect width="3.07221" height="2.30227" rx="0.430476" transform="matrix(-1 -1.74846e-07 -1.74846e-07 1 48.3604 61.9545)" fill="#61C3F2"/>
<rect width="2.15055" height="0.460455" rx="0.230228" transform="matrix(-1 -1.74846e-07 -1.74846e-07 1 47.8996 64.4103)" fill="#61C3F2"/>
<rect width="3.07221" height="2.30227" rx="0.430476" transform="matrix(-1 -1.74846e-07 -1.74846e-07 1 54.0154 61.9545)" fill="#61C3F2"/>
<rect width="2.15055" height="0.460455" rx="0.230228" transform="matrix(-1 -1.74846e-07 -1.74846e-07 1 53.5546 64.4103)" fill="#61C3F2"/>
<rect width="3.07221" height="2.30227" rx="0.430476" transform="matrix(-1 -1.74846e-07 -1.74846e-07 1 59.6704 61.9545)" fill="#A6A6A6" fill-opacity="0.5"/>
<rect width="2.15055" height="0.460455" rx="0.230228" transform="matrix(-1 -1.74846e-07 -1.74846e-07 1 59.2096 64.4103)" fill="#A6A6A6" fill-opacity="0.5"/>
<rect width="3.07221" height="2.30227" rx="0.430476" transform="matrix(-1 -1.74846e-07 -1.74846e-07 1 65.3256 61.9545)" fill="#A6A6A6" fill-opacity="0.5"/>
<rect width="2.15055" height="0.460455" rx="0.230228" transform="matrix(-1 -1.74846e-07 -1.74846e-07 1 64.8648 64.4103)" fill="#A6A6A6" fill-opacity="0.5"/>
<rect width="3.07221" height="2.30227" rx="0.430476" transform="matrix(-1 -1.74846e-07 -1.74846e-07 1 70.9806 61.9545)" fill="#61C3F2"/>
<rect width="2.15055" height="0.460455" rx="0.230228" transform="matrix(-1 -1.74846e-07 -1.74846e-07 1 70.5198 64.4103)" fill="#61C3F2"/>
<rect width="3.07221" height="2.30227" rx="0.430476" transform="matrix(-1 -1.74846e-07 -1.74846e-07 1 76.6357 61.9545)" fill="#61C3F2"/>
<rect width="2.15055" height="0.460455" rx="0.230228" transform="matrix(-1 -1.74846e-07 -1.74846e-07 1 76.1748 64.4103)" fill="#61C3F2"/>
<rect width="3.07221" height="2.30227" rx="0.430476" transform="matrix(-1 -1.74846e-07 -1.74846e-07 1 82.2908 61.9545)" fill="#A6A6A6" fill-opacity="0.5"/>
<rect width="2.15055" height="0.460455" rx="0.230228" transform="matrix(-1 -1.74846e-07 -1.74846e-07 1 81.83 64.4103)" fill="#A6A6A6" fill-opacity="0.5"/>
<rect width="3.07221" height="2.30227" rx="0.430476" transform="matrix(-1 -1.74846e-07 -1.74846e-07 1 87.9458 61.9545)" fill="#A6A6A6" fill-opacity="0.5"/>
<rect width="2.15055" height="0.460455" rx="0.230228" transform="matrix(-1 -1.74846e-07 -1.74846e-07 1 87.485 64.4103)" fill="#A6A6A6" fill-opacity="0.5"/>
<rect width="3.07221" height="2.30227" rx="0.430476" transform="matrix(-1 -1.74846e-07 -1.74846e-07 1 93.6009 61.9545)" fill="#61C3F2"/>
<rect width="2.15055" height="0.460455" rx="0.230228" transform="matrix(-1 -1.74846e-07 -1.74846e-07 1 93.14 64.4103)" fill="#61C3F2"/>
<rect width="3.07221" height="2.30227" rx="0.430476" transform="matrix(-1 -1.74846e-07 -1.74846e-07 1 99.256 61.9545)" fill="#61C3F2"/>
<rect width="2.15055" height="0.460455" rx="0.230228" transform="matrix(-1 -1.74846e-07 -1.74846e-07 1 98.7951 64.4103)" fill="#61C3F2"/>
<rect width="3.07221" height="2.30227" rx="0.430476" transform="matrix(-1 -1.74846e-07 -1.74846e-07 1 104.911 61.9545)" fill="#A6A6A6" fill-opacity="0.5"/>
<rect width="2.15055" height="0.460455" rx="0.230228" transform="matrix(-1 -1.74846e-07 -1.74846e-07 1 104.45 64.4103)" fill="#A6A6A6" fill-opacity="0.5"/>
<rect width="3.07221" height="2.30227" rx="0.430476" transform="matrix(-1 -1.74846e-07 -1.74846e-07 1 110.566 61.9545)" fill="#A6A6A6" fill-opacity="0.5"/>
<rect width="2.15055" height="0.460455" rx="0.230228" transform="matrix(-1 -1.74846e-07 -1.74846e-07 1 110.105 64.4103)" fill="#A6A6A6" fill-opacity="0.5"/>
<rect width="3.07221" height="2.30227" rx="0.430476" transform="matrix(-1 -1.74846e-07 -1.74846e-07 1 121.876 61.9545)" fill="#A6A6A6" fill-opacity="0.5"/>
<rect width="2.15055" height="0.460455" rx="0.230228" transform="matrix(-1 -1.74846e-07 -1.74846e-07 1 121.415 64.4103)" fill="#A6A6A6" fill-opacity="0.5"/>
<rect width="3.07221" height="2.30227" rx="0.430476" transform="matrix(-1 -1.74846e-07 -1.74846e-07 1 127.531 61.9545)" fill="#61C3F2"/>
<rect width="2.15055" height="0.460455" rx="0.230228" transform="matrix(-1 -1.74846e-07 -1.74846e-07 1 127.07 64.4103)" fill="#61C3F2"/>
<rect width="3.07221" height="2.30227" rx="0.430476" transform="matrix(-1 -1.74846e-07 -1.74846e-07 1 133.186 61.9545)" fill="#61C3F2"/>
<rect width="2.15055" height="0.460455" rx="0.230228" transform="matrix(-1 -1.74846e-07 -1.74846e-07 1 132.725 64.4103)" fill="#61C3F2"/>
<rect width="3.07221" height="2.30227" rx="0.430476" transform="matrix(-1 -1.74846e-07 -1.74846e-07 1 138.841 61.9545)" fill="#A6A6A6" fill-opacity="0.5"/>
<rect width="2.15055" height="0.460455" rx="0.230228" transform="matrix(-1 -1.74846e-07 -1.74846e-07 1 138.381 64.4103)" fill="#A6A6A6" fill-opacity="0.5"/>
<rect width="3.07221" height="2.30227" rx="0.430476" transform="matrix(-1 -1.74846e-07 -1.74846e-07 1 144.496 61.9545)" fill="#A6A6A6" fill-opacity="0.5"/>
<rect width="2.15055" height="0.460455" rx="0.230228" transform="matrix(-1 -1.74846e-07 -1.74846e-07 1 144.036 64.4103)" fill="#A6A6A6" fill-opacity="0.5"/>
<rect width="3.07221" height="2.30227" rx="0.430476" transform="matrix(-1 -1.74846e-07 -1.74846e-07 1 3.11978 68.745)" fill="#61C3F2"/>
<rect width="2.15055" height="0.460455" rx="0.230228" transform="matrix(-1 -1.74846e-07 -1.74846e-07 1 2.65897 71.2008)" fill="#61C3F2"/>
<rect width="3.07221" height="2.30227" rx="0.430476" transform="matrix(-1 -1.74846e-07 -1.74846e-07 1 8.77481 68.745)" fill="#61C3F2"/>
<rect width="2.15055" height="0.460455" rx="0.230228" transform="matrix(-1 -1.74846e-07 -1.74846e-07 1 8.314 71.2008)" fill="#61C3F2"/>
<rect width="3.07221" height="2.30227" rx="0.430476" transform="matrix(-1 -1.74846e-07 -1.74846e-07 1 14.43 68.745)" fill="#A6A6A6" fill-opacity="0.5"/>
<rect width="2.15055" height="0.460455" rx="0.230228" transform="matrix(-1 -1.74846e-07 -1.74846e-07 1 13.9691 71.2008)" fill="#A6A6A6" fill-opacity="0.5"/>
<rect width="3.07221" height="2.30227" rx="0.430476" transform="matrix(-1 -1.74846e-07 -1.74846e-07 1 20.085 68.745)" fill="#A6A6A6" fill-opacity="0.5"/>
<rect width="2.15055" height="0.460455" rx="0.230228" transform="matrix(-1 -1.74846e-07 -1.74846e-07 1 19.6242 71.2008)" fill="#A6A6A6" fill-opacity="0.5"/>
<rect width="3.07221" height="2.30227" rx="0.430476" transform="matrix(-1 -1.74846e-07 -1.74846e-07 1 25.74 68.745)" fill="#A6A6A6" fill-opacity="0.5"/>
<rect width="2.15055" height="0.460455" rx="0.230228" transform="matrix(-1 -1.74846e-07 -1.74846e-07 1 25.2792 71.2008)" fill="#A6A6A6" fill-opacity="0.5"/>
<rect width="3.07221" height="2.30227" rx="0.430476" transform="matrix(-1 -1.74846e-07 -1.74846e-07 1 37.0502 68.745)" fill="#61C3F2"/>
<rect width="2.15055" height="0.460455" rx="0.230228" transform="matrix(-1 -1.74846e-07 -1.74846e-07 1 36.5894 71.2008)" fill="#61C3F2"/>
<rect width="3.07221" height="2.30227" rx="0.430476" transform="matrix(-1 -1.74846e-07 -1.74846e-07 1 42.7052 68.745)" fill="#61C3F2"/>
<rect width="2.15055" height="0.460455" rx="0.230228" transform="matrix(-1 -1.74846e-07 -1.74846e-07 1 42.2444 71.2008)" fill="#61C3F2"/>
<rect width="3.07221" height="2.30227" rx="0.430476" transform="matrix(-1 -1.74846e-07 -1.74846e-07 1 48.3604 68.745)" fill="#A6A6A6" fill-opacity="0.5"/>
<rect width="2.15055" height="0.460455" rx="0.230228" transform="matrix(-1 -1.74846e-07 -1.74846e-07 1 47.8996 71.2008)" fill="#A6A6A6" fill-opacity="0.5"/>
<rect width="3.07221" height="2.30227" rx="0.430476" transform="matrix(-1 -1.74846e-07 -1.74846e-07 1 54.0154 68.745)" fill="#A6A6A6" fill-opacity="0.5"/>
<rect width="2.15055" height="0.460455" rx="0.230228" transform="matrix(-1 -1.74846e-07 -1.74846e-07 1 53.5546 71.2008)" fill="#A6A6A6" fill-opacity="0.5"/>
<rect width="3.07221" height="2.30227" rx="0.430476" transform="matrix(-1 -1.74846e-07 -1.74846e-07 1 59.6704 68.745)" fill="#61C3F2"/>
<rect width="2.15055" height="0.460455" rx="0.230228" transform="matrix(-1 -1.74846e-07 -1.74846e-07 1 59.2096 71.2008)" fill="#61C3F2"/>
<rect width="3.07221" height="2.30227" rx="0.430476" transform="matrix(-1 -1.74846e-07 -1.74846e-07 1 65.3256 68.745)" fill="#61C3F2"/>
<rect width="2.15055" height="0.460455" rx="0.230228" transform="matrix(-1 -1.74846e-07 -1.74846e-07 1 64.8648 71.2008)" fill="#61C3F2"/>
<rect width="3.07221" height="2.30227" rx="0.430476" transform="matrix(-1 -1.74846e-07 -1.74846e-07 1 70.9806 68.745)" fill="#A6A6A6" fill-opacity="0.5"/>
<rect width="2.15055" height="0.460455" rx="0.230228" transform="matrix(-1 -1.74846e-07 -1.74846e-07 1 70.5198 71.2008)" fill="#A6A6A6" fill-opacity="0.5"/>
<rect width="3.07221" height="2.30227" rx="0.430476" transform="matrix(-1 -1.74846e-07 -1.74846e-07 1 76.6357 68.745)" fill="#A6A6A6" fill-opacity="0.5"/>
<rect width="2.15055" height="0.460455" rx="0.230228" transform="matrix(-1 -1.74846e-07 -1.74846e-07 1 76.1748 71.2008)" fill="#A6A6A6" fill-opacity="0.5"/>
<rect width="3.07221" height="2.30227" rx="0.430476" transform="matrix(-1 -1.74846e-07 -1.74846e-07 1 82.2908 68.745)" fill="#61C3F2"/>
<rect width="2.15055" height="0.460455" rx="0.230228" transform="matrix(-1 -1.74846e-07 -1.74846e-07 1 81.83 71.2008)" fill="#61C3F2"/>
<rect width="3.07221" height="2.30227" rx="0.430476" transform="matrix(-1 -1.74846e-07 -1.74846e-07 1 87.9458 68.745)" fill="#61C3F2"/>
<rect width="2.15055" height="0.460455" rx="0.230228" transform="matrix(-1 -1.74846e-07 -1.74846e-07 1 87.485 71.2008)" fill="#61C3F2"/>
<rect width="3.07221" height="2.30227" rx="0.430476" transform="matrix(-1 -1.74846e-07 -1.74846e-07 1 93.6009 68.745)" fill="#A6A6A6" fill-opacity="0.5"/>
<rect width="2.15055" height="0.460455" rx="0.230228" transform="matrix(-1 -1.74846e-07 -1.74846e-07 1 93.14 71.2008)" fill="#A6A6A6" fill-opacity="0.5"/>
<rect width="3.07221" height="2.30227" rx="0.430476" transform="matrix(-1 -1.74846e-07 -1.74846e-07 1 99.256 68.745)" fill="#A6A6A6" fill-opacity="0.5"/>
<rect width="2.15055" height="0.460455" rx="0.230228" transform="matrix(-1 -1.74846e-07 -1.74846e-07 1 98.7951 71.2008)" fill="#A6A6A6" fill-opacity="0.5"/>
<rect width="3.07221" height="2.30227" rx="0.430476" transform="matrix(-1 -1.74846e-07 -1.74846e-07 1 104.911 68.745)" fill="#61C3F2"/>
<rect width="2.15055" height="0.460455" rx="0.230228" transform="matrix(-1 -1.74846e-07 -1.74846e-07 1 104.45 71.2008)" fill="#61C3F2"/>
<rect width="3.07221" height="2.30227" rx="0.430476" transform="matrix(-1 -1.74846e-07 -1.74846e-07 1 110.566 68.745)" fill="#61C3F2"/>
<rect width="2.15055" height="0.460455" rx="0.230228" transform="matrix(-1 -1.74846e-07 -1.74846e-07 1 110.105 71.2008)" fill="#61C3F2"/>
<rect width="3.07221" height="2.30227" rx="0.430476" transform="matrix(-1 -1.74846e-07 -1.74846e-07 1 121.876 68.745)" fill="#A6A6A6" fill-opacity="0.5"/>
<rect width="2.15055" height="0.460455" rx="0.230228" transform="matrix(-1 -1.74846e-07 -1.74846e-07 1 121.415 71.2008)" fill="#A6A6A6" fill-opacity="0.5"/>
<rect width="3.07221" height="2.30227" rx="0.430476" transform="matrix(-1 -1.74846e-07 -1.74846e-07 1 127.531 68.745)" fill="#A6A6A6" fill-opacity="0.5"/>
<rect width="2.15055" height="0.460455" rx="0.230228" transform="matrix(-1 -1.74846e-07 -1.74846e-07 1 127.07 71.2008)" fill="#A6A6A6" fill-opacity="0.5"/>
<rect width="3.07221" height="2.30227" rx="0.430476" transform="matrix(-1 -1.74846e-07 -1.74846e-07 1 133.186 68.745)" fill="#A6A6A6" fill-opacity="0.5"/>
<rect width="2.15055" height="0.460455" rx="0.230228" transform="matrix(-1 -1.74846e-07 -1.74846e-07 1 132.725 71.2008)" fill="#A6A6A6" fill-opacity="0.5"/>
<rect width="3.07221" height="2.30227" rx="0.430476" transform="matrix(-1 -1.74846e-07 -1.74846e-07 1 138.841 68.745)" fill="#61C3F2"/>
<rect width="2.15055" height="0.460455" rx="0.230228" transform="matrix(-1 -1.74846e-07 -1.74846e-07 1 138.381 71.2008)" fill="#61C3F2"/>
<rect width="3.07221" height="2.30227" rx="0.430476" transform="matrix(-1 -1.74846e-07 -1.74846e-07 1 144.496 68.745)" fill="#61C3F2"/>
<rect width="2.15055" height="0.460455" rx="0.230228" transform="matrix(-1 -1.74846e-07 -1.74846e-07 1 144.036 71.2008)" fill="#61C3F2"/>
<rect width="3.07221" height="2.30227" rx="0.430476" transform="matrix(-1 -1.74846e-07 -1.74846e-07 1 3.11978 75.5355)" fill="#A6A6A6" fill-opacity="0.5"/>
<rect width="2.15055" height="0.460455" rx="0.230228" transform="matrix(-1 -1.74846e-07 -1.74846e-07 1 2.65897 77.9913)" fill="#A6A6A6" fill-opacity="0.5"/>
<rect width="3.07221" height="2.30227" rx="0.430476" transform="matrix(-1 -1.74846e-07 -1.74846e-07 1 8.77481 75.5355)" fill="#A6A6A6" fill-opacity="0.5"/>
<rect width="2.15055" height="0.460455" rx="0.230228" transform="matrix(-1 -1.74846e-07 -1.74846e-07 1 8.314 77.9913)" fill="#A6A6A6" fill-opacity="0.5"/>
<rect width="3.07221" height="2.30227" rx="0.430476" transform="matrix(-1 -1.74846e-07 -1.74846e-07 1 14.43 75.5355)" fill="#61C3F2"/>
<rect width="2.15055" height="0.460455" rx="0.230228" transform="matrix(-1 -1.74846e-07 -1.74846e-07 1 13.9691 77.9913)" fill="#61C3F2"/>
<rect width="3.07221" height="2.30227" rx="0.430476" transform="matrix(-1 -1.74846e-07 -1.74846e-07 1 20.085 75.5355)" fill="#61C3F2"/>
<rect width="2.15055" height="0.460455" rx="0.230228" transform="matrix(-1 -1.74846e-07 -1.74846e-07 1 19.6242 77.9913)" fill="#61C3F2"/>
<rect width="3.07221" height="2.30227" rx="0.430476" transform="matrix(-1 -1.74846e-07 -1.74846e-07 1 25.74 75.5355)" fill="#A6A6A6" fill-opacity="0.5"/>
<rect width="2.15055" height="0.460455" rx="0.230228" transform="matrix(-1 -1.74846e-07 -1.74846e-07 1 25.2792 77.9913)" fill="#A6A6A6" fill-opacity="0.5"/>
<rect width="3.07221" height="2.30227" rx="0.430476" transform="matrix(-1 -1.74846e-07 -1.74846e-07 1 37.0502 75.5355)" fill="#A6A6A6" fill-opacity="0.5"/>
<rect width="2.15055" height="0.460455" rx="0.230228" transform="matrix(-1 -1.74846e-07 -1.74846e-07 1 36.5894 77.9913)" fill="#A6A6A6" fill-opacity="0.5"/>
<rect width="3.07221" height="2.30227" rx="0.430476" transform="matrix(-1 -1.74846e-07 -1.74846e-07 1 42.7052 75.5355)" fill="#A6A6A6" fill-opacity="0.5"/>
<rect width="2.15055" height="0.460455" rx="0.230228" transform="matrix(-1 -1.74846e-07 -1.74846e-07 1 42.2444 77.9913)" fill="#A6A6A6" fill-opacity="0.5"/>
<rect width="3.07221" height="2.30227" rx="0.430476" transform="matrix(-1 -1.74846e-07 -1.74846e-07 1 48.3604 75.5355)" fill="#61C3F2"/>
<rect width="2.15055" height="0.460455" rx="0.230228" transform="matrix(-1 -1.74846e-07 -1.74846e-07 1 47.8996 77.9913)" fill="#61C3F2"/>
<rect width="3.07221" height="2.30227" rx="0.430476" transform="matrix(-1 -1.74846e-07 -1.74846e-07 1 54.0154 75.5355)" fill="#61C3F2"/>
<rect width="2.15055" height="0.460455" rx="0.230228" transform="matrix(-1 -1.74846e-07 -1.74846e-07 1 53.5546 77.9913)" fill="#61C3F2"/>
<rect width="3.07221" height="2.30227" rx="0.430476" transform="matrix(-1 -1.74846e-07 -1.74846e-07 1 59.6704 75.5355)" fill="#A6A6A6" fill-opacity="0.5"/>
<rect width="2.15055" height="0.460455" rx="0.230228" transform="matrix(-1 -1.74846e-07 -1.74846e-07 1 59.2096 77.9913)" fill="#A6A6A6" fill-opacity="0.5"/>
<rect width="3.07221" height="2.30227" rx="0.430476" transform="matrix(-1 -1.74846e-07 -1.74846e-07 1 65.3256 75.5355)" fill="#A6A6A6" fill-opacity="0.5"/>
<rect width="2.15055" height="0.460455" rx="0.230228" transform="matrix(-1 -1.74846e-07 -1.74846e-07 1 64.8648 77.9913)" fill="#A6A6A6" fill-opacity="0.5"/>
<rect width="3.07221" height="2.30227" rx="0.430476" transform="matrix(-1 -1.74846e-07 -1.74846e-07 1 70.9806 75.5355)" fill="#61C3F2"/>
<rect width="2.15055" height="0.460455" rx="0.230228" transform="matrix(-1 -1.74846e-07 -1.74846e-07 1 70.5198 77.9913)" fill="#61C3F2"/>
<rect width="3.07221" height="2.30227" rx="0.430476" transform="matrix(-1 -1.74846e-07 -1.74846e-07 1 76.6357 75.5355)" fill="#61C3F2"/>
<rect width="2.15055" height="0.460455" rx="0.230228" transform="matrix(-1 -1.74846e-07 -1.74846e-07 1 76.1748 77.9913)" fill="#61C3F2"/>
<rect width="3.07221" height="2.30227" rx="0.430476" transform="matrix(-1 -1.74846e-07 -1.74846e-07 1 82.2908 75.5355)" fill="#A6A6A6" fill-opacity="0.5"/>
<rect width="2.15055" height="0.460455" rx="0.230228" transform="matrix(-1 -1.74846e-07 -1.74846e-07 1 81.83 77.9913)" fill="#A6A6A6" fill-opacity="0.5"/>
<rect width="3.07221" height="2.30227" rx="0.430476" transform="matrix(-1 -1.74846e-07 -1.74846e-07 1 87.9458 75.5355)" fill="#A6A6A6" fill-opacity="0.5"/>
<rect width="2.15055" height="0.460455" rx="0.230228" transform="matrix(-1 -1.74846e-07 -1.74846e-07 1 87.485 77.9913)" fill="#A6A6A6" fill-opacity="0.5"/>
<rect width="3.07221" height="2.30227" rx="0.430476" transform="matrix(-1 -1.74846e-07 -1.74846e-07 1 93.6009 75.5355)" fill="#61C3F2"/>
<rect width="2.15055" height="0.460455" rx="0.230228" transform="matrix(-1 -1.74846e-07 -1.74846e-07 1 93.14 77.9913)" fill="#61C3F2"/>
<rect width="3.07221" height="2.30227" rx="0.430476" transform="matrix(-1 -1.74846e-07 -1.74846e-07 1 99.256 75.5355)" fill="#61C3F2"/>
<rect width="2.15055" height="0.460455" rx="0.230228" transform="matrix(-1 -1.74846e-07 -1.74846e-07 1 98.7951 77.9913)" fill="#61C3F2"/>
<rect width="3.07221" height="2.30227" rx="0.430476" transform="matrix(-1 -1.74846e-07 -1.74846e-07 1 104.911 75.5355)" fill="#A6A6A6" fill-opacity="0.5"/>
<rect width="2.15055" height="0.460455" rx="0.230228" transform="matrix(-1 -1.74846e-07 -1.74846e-07 1 104.45 77.9913)" fill="#A6A6A6" fill-opacity="0.5"/>
<rect width="3.07221" height="2.30227" rx="0.430476" transform="matrix(-1 -1.74846e-07 -1.74846e-07 1 110.566 75.5355)" fill="#A6A6A6" fill-opacity="0.5"/>
<rect width="2.15055" height="0.460455" rx="0.230228" transform="matrix(-1 -1.74846e-07 -1.74846e-07 1 110.105 77.9913)" fill="#A6A6A6" fill-opacity="0.5"/>
<rect width="3.07221" height="2.30227" rx="0.430476" transform="matrix(-1 -1.74846e-07 -1.74846e-07 1 121.876 75.5355)" fill="#A6A6A6" fill-opacity="0.5"/>
<rect width="2.15055" height="0.460455" rx="0.230228" transform="matrix(-1 -1.74846e-07 -1.74846e-07 1 121.415 77.9913)" fill="#A6A6A6" fill-opacity="0.5"/>
<rect width="3.07221" height="2.30227" rx="0.430476" transform="matrix(-1 -1.74846e-07 -1.74846e-07 1 127.531 75.5355)" fill="#61C3F2"/>
<rect width="2.15055" height="0.460455" rx="0.230228" transform="matrix(-1 -1.74846e-07 -1.74846e-07 1 127.07 77.9913)" fill="#61C3F2"/>
<rect width="3.07221" height="2.30227" rx="0.430476" transform="matrix(-1 -1.74846e-07 -1.74846e-07 1 133.186 75.5355)" fill="#61C3F2"/>
<rect width="2.15055" height="0.460455" rx="0.230228" transform="matrix(-1 -1.74846e-07 -1.74846e-07 1 132.725 77.9913)" fill="#61C3F2"/>
<rect width="3.07221" height="2.30227" rx="0.430476" transform="matrix(-1 -1.74846e-07 -1.74846e-07 1 138.841 75.5355)" fill="#A6A6A6" fill-opacity="0.5"/>
<rect width="2.15055" height="0.460455" rx="0.230228" transform="matrix(-1 -1.74846e-07 -1.74846e-07 1 138.381 77.9913)" fill="#A6A6A6" fill-opacity="0.5"/>
<rect width="3.07221" height="2.30227" rx="0.430476" transform="matrix(-1 -1.74846e-07 -1.74846e-07 1 144.496 75.5355)" fill="#A6A6A6" fill-opacity="0.5"/>
<rect width="2.15055" height="0.460455" rx="0.230228" transform="matrix(-1 -1.74846e-07 -1.74846e-07 1 144.036 77.9913)" fill="#A6A6A6" fill-opacity="0.5"/>
<rect width="3.07221" height="2.30227" rx="0.430476" transform="matrix(-1 -1.74846e-07 -1.74846e-07 1 3.11978 82.326)" fill="#61C3F2"/>
<rect width="2.15055" height="0.460455" rx="0.230228" transform="matrix(-1 -1.74846e-07 -1.74846e-07 1 2.65897 84.7818)" fill="#61C3F2"/>
<rect width="3.07221" height="2.30227" rx="0.430476" transform="matrix(-1 -1.74846e-07 -1.74846e-07 1 8.77481 82.326)" fill="#61C3F2"/>
<rect width="2.15055" height="0.460455" rx="0.230228" transform="matrix(-1 -1.74846e-07 -1.74846e-07 1 8.314 84.7818)" fill="#61C3F2"/>
<rect width="3.07221" height="2.30227" rx="0.430476" transform="matrix(-1 -1.74846e-07 -1.74846e-07 1 14.43 82.326)" fill="#A6A6A6" fill-opacity="0.5"/>
<rect width="2.15055" height="0.460455" rx="0.230228" transform="matrix(-1 -1.74846e-07 -1.74846e-07 1 13.9691 84.7818)" fill="#A6A6A6" fill-opacity="0.5"/>
<rect width="3.07221" height="2.30227" rx="0.430476" transform="matrix(-1 -1.74846e-07 -1.74846e-07 1 20.085 82.326)" fill="#A6A6A6" fill-opacity="0.5"/>
<rect width="2.15055" height="0.460455" rx="0.230228" transform="matrix(-1 -1.74846e-07 -1.74846e-07 1 19.6242 84.7818)" fill="#A6A6A6" fill-opacity="0.5"/>
<rect width="3.07221" height="2.30227" rx="0.430476" transform="matrix(-1 -1.74846e-07 -1.74846e-07 1 25.74 82.326)" fill="#A6A6A6" fill-opacity="0.5"/>
<rect width="2.15055" height="0.460455" rx="0.230228" transform="matrix(-1 -1.74846e-07 -1.74846e-07 1 25.2792 84.7818)" fill="#A6A6A6" fill-opacity="0.5"/>
<rect width="3.07221" height="2.30227" rx="0.430476" transform="matrix(-1 -1.74846e-07 -1.74846e-07 1 37.0502 82.326)" fill="#61C3F2"/>
<rect width="2.15055" height="0.460455" rx="0.230228" transform="matrix(-1 -1.74846e-07 -1.74846e-07 1 36.5894 84.7818)" fill="#61C3F2"/>
<rect width="3.07221" height="2.30227" rx="0.430476" transform="matrix(-1 -1.74846e-07 -1.74846e-07 1 42.7052 82.326)" fill="#61C3F2"/>
<rect width="2.15055" height="0.460455" rx="0.230228" transform="matrix(-1 -1.74846e-07 -1.74846e-07 1 42.2444 84.7818)" fill="#61C3F2"/>
<rect width="3.07221" height="2.30227" rx="0.430476" transform="matrix(-1 -1.74846e-07 -1.74846e-07 1 48.3604 82.326)" fill="#A6A6A6" fill-opacity="0.5"/>
<rect width="2.15055" height="0.460455" rx="0.230228" transform="matrix(-1 -1.74846e-07 -1.74846e-07 1 47.8996 84.7818)" fill="#A6A6A6" fill-opacity="0.5"/>
<rect width="3.07221" height="2.30227" rx="0.430476" transform="matrix(-1 -1.74846e-07 -1.74846e-07 1 54.0154 82.326)" fill="#A6A6A6" fill-opacity="0.5"/>
<rect width="2.15055" height="0.460455" rx="0.230228" transform="matrix(-1 -1.74846e-07 -1.74846e-07 1 53.5546 84.7818)" fill="#A6A6A6" fill-opacity="0.5"/>
<rect width="3.07221" height="2.30227" rx="0.430476" transform="matrix(-1 -1.74846e-07 -1.74846e-07 1 59.6704 82.326)" fill="#61C3F2"/>
<rect width="2.15055" height="0.460455" rx="0.230228" transform="matrix(-1 -1.74846e-07 -1.74846e-07 1 59.2096 84.7818)" fill="#61C3F2"/>
<rect width="3.07221" height="2.30227" rx="0.430476" transform="matrix(-1 -1.74846e-07 -1.74846e-07 1 65.3256 82.326)" fill="#61C3F2"/>
<rect width="2.15055" height="0.460455" rx="0.230228" transform="matrix(-1 -1.74846e-07 -1.74846e-07 1 64.8648 84.7818)" fill="#61C3F2"/>
<rect width="3.07221" height="2.30227" rx="0.430476" transform="matrix(-1 -1.74846e-07 -1.74846e-07 1 70.9806 82.326)" fill="#A6A6A6" fill-opacity="0.5"/>
<rect width="2.15055" height="0.460455" rx="0.230228" transform="matrix(-1 -1.74846e-07 -1.74846e-07 1 70.5198 84.7818)" fill="#A6A6A6" fill-opacity="0.5"/>
<rect width="3.07221" height="2.30227" rx="0.430476" transform="matrix(-1 -1.74846e-07 -1.74846e-07 1 76.6357 82.326)" fill="#A6A6A6" fill-opacity="0.5"/>
<rect width="2.15055" height="0.460455" rx="0.230228" transform="matrix(-1 -1.74846e-07 -1.74846e-07 1 76.1748 84.7818)" fill="#A6A6A6" fill-opacity="0.5"/>
<rect width="3.07221" height="2.30227" rx="0.430476" transform="matrix(-1 -1.74846e-07 -1.74846e-07 1 82.2908 82.326)" fill="#61C3F2"/>
<rect width="2.15055" height="0.460455" rx="0.230228" transform="matrix(-1 -1.74846e-07 -1.74846e-07 1 81.83 84.7818)" fill="#61C3F2"/>
<rect width="3.07221" height="2.30227" rx="0.430476" transform="matrix(-1 -1.74846e-07 -1.74846e-07 1 87.9458 82.326)" fill="#61C3F2"/>
<rect width="2.15055" height="0.460455" rx="0.230228" transform="matrix(-1 -1.74846e-07 -1.74846e-07 1 87.485 84.7818)" fill="#61C3F2"/>
<rect width="3.07221" height="2.30227" rx="0.430476" transform="matrix(-1 -1.74846e-07 -1.74846e-07 1 93.6009 82.326)" fill="#A6A6A6" fill-opacity="0.5"/>
<rect width="2.15055" height="0.460455" rx="0.230228" transform="matrix(-1 -1.74846e-07 -1.74846e-07 1 93.14 84.7818)" fill="#A6A6A6" fill-opacity="0.5"/>
<rect width="3.07221" height="2.30227" rx="0.430476" transform="matrix(-1 -1.74846e-07 -1.74846e-07 1 99.256 82.326)" fill="#A6A6A6" fill-opacity="0.5"/>
<rect width="2.15055" height="0.460455" rx="0.230228" transform="matrix(-1 -1.74846e-07 -1.74846e-07 1 98.7951 84.7818)" fill="#A6A6A6" fill-opacity="0.5"/>
<rect width="3.07221" height="2.30227" rx="0.430476" transform="matrix(-1 -1.74846e-07 -1.74846e-07 1 104.911 82.326)" fill="#61C3F2"/>
<rect width="2.15055" height="0.460455" rx="0.230228" transform="matrix(-1 -1.74846e-07 -1.74846e-07 1 104.45 84.7818)" fill="#61C3F2"/>
<rect width="3.07221" height="2.30227" rx="0.430476" transform="matrix(-1 -1.74846e-07 -1.74846e-07 1 110.566 82.326)" fill="#61C3F2"/>
<rect width="2.15055" height="0.460455" rx="0.230228" transform="matrix(-1 -1.74846e-07 -1.74846e-07 1 110.105 84.7818)" fill="#61C3F2"/>
<rect width="3.07221" height="2.30227" rx="0.430476" transform="matrix(-1 -1.74846e-07 -1.74846e-07 1 121.876 82.326)" fill="#A6A6A6" fill-opacity="0.5"/>
<rect width="2.15055" height="0.460455" rx="0.230228" transform="matrix(-1 -1.74846e-07 -1.74846e-07 1 121.415 84.7818)" fill="#A6A6A6" fill-opacity="0.5"/>
<rect width="3.07221" height="2.30227" rx="0.430476" transform="matrix(-1 -1.74846e-07 -1.74846e-07 1 127.531 82.326)" fill="#A6A6A6" fill-opacity="0.5"/>
<rect width="2.15055" height="0.460455" rx="0.230228" transform="matrix(-1 -1.74846e-07 -1.74846e-07 1 127.07 84.7818)" fill="#A6A6A6" fill-opacity="0.5"/>
<rect width="3.07221" height="2.30227" rx="0.430476" transform="matrix(-1 -1.74846e-07 -1.74846e-07 1 133.186 82.326)" fill="#A6A6A6" fill-opacity="0.5"/>
<rect width="2.15055" height="0.460455" rx="0.230228" transform="matrix(-1 -1.74846e-07 -1.74846e-07 1 132.725 84.7818)" fill="#A6A6A6" fill-opacity="0.5"/>
<rect width="3.07221" height="2.30227" rx="0.430476" transform="matrix(-1 -1.74846e-07 -1.74846e-07 1 138.841 82.326)" fill="#61C3F2"/>
<rect width="2.15055" height="0.460455" rx="0.230228" transform="matrix(-1 -1.74846e-07 -1.74846e-07 1 138.381 84.7818)" fill="#61C3F2"/>
<rect width="3.07221" height="2.30227" rx="0.430476" transform="matrix(-1 -1.74846e-07 -1.74846e-07 1 144.496 82.326)" fill="#61C3F2"/>
<rect width="2.15055" height="0.460455" rx="0.230228" transform="matrix(-1 -1.74846e-07 -1.74846e-07 1 144.036 84.7818)" fill="#61C3F2"/>
<rect width="3.07221" height="2.30227" rx="0.430476" transform="matrix(-1 -1.74846e-07 -1.74846e-07 1 3.11978 89.1165)" fill="#A6A6A6" fill-opacity="0.5"/>
<rect width="2.15055" height="0.460455" rx="0.230228" transform="matrix(-1 -1.74846e-07 -1.74846e-07 1 2.65897 91.5723)" fill="#A6A6A6" fill-opacity="0.5"/>
<rect width="3.07221" height="2.30227" rx="0.430476" transform="matrix(-1 -1.74846e-07 -1.74846e-07 1 8.77481 89.1165)" fill="#A6A6A6" fill-opacity="0.5"/>
<rect width="2.15055" height="0.460455" rx="0.230228" transform="matrix(-1 -1.74846e-07 -1.74846e-07 1 8.314 91.5723)" fill="#A6A6A6" fill-opacity="0.5"/>
<rect width="3.07221" height="2.30227" rx="0.430476" transform="matrix(-1 -1.74846e-07 -1.74846e-07 1 14.43 89.1165)" fill="#61C3F2"/>
<rect width="2.15055" height="0.460455" rx="0.230228" transform="matrix(-1 -1.74846e-07 -1.74846e-07 1 13.9691 91.5723)" fill="#61C3F2"/>
<rect width="3.07221" height="2.30227" rx="0.430476" transform="matrix(-1 -1.74846e-07 -1.74846e-07 1 20.085 89.1165)" fill="#61C3F2"/>
<rect width="2.15055" height="0.460455" rx="0.230228" transform="matrix(-1 -1.74846e-07 -1.74846e-07 1 19.6242 91.5723)" fill="#61C3F2"/>
<rect width="3.07221" height="2.30227" rx="0.430476" transform="matrix(-1 -1.74846e-07 -1.74846e-07 1 25.74 89.1165)" fill="#A6A6A6" fill-opacity="0.5"/>
<rect width="2.15055" height="0.460455" rx="0.230228" transform="matrix(-1 -1.74846e-07 -1.74846e-07 1 25.2792 91.5723)" fill="#A6A6A6" fill-opacity="0.5"/>
<rect width="3.07221" height="2.30227" rx="0.430476" transform="matrix(-1 -1.74846e-07 -1.74846e-07 1 37.0502 89.1165)" fill="#A6A6A6" fill-opacity="0.5"/>
<rect width="2.15055" height="0.460455" rx="0.230228" transform="matrix(-1 -1.74846e-07 -1.74846e-07 1 36.5894 91.5723)" fill="#A6A6A6" fill-opacity="0.5"/>
<rect width="3.07221" height="2.30227" rx="0.430476" transform="matrix(-1 -1.74846e-07 -1.74846e-07 1 42.7052 89.1165)" fill="#A6A6A6" fill-opacity="0.5"/>
<rect width="2.15055" height="0.460455" rx="0.230228" transform="matrix(-1 -1.74846e-07 -1.74846e-07 1 42.2444 91.5723)" fill="#A6A6A6" fill-opacity="0.5"/>
<rect width="3.07221" height="2.30227" rx="0.430476" transform="matrix(-1 -1.74846e-07 -1.74846e-07 1 48.3604 89.1165)" fill="#61C3F2"/>
<rect width="2.15055" height="0.460455" rx="0.230228" transform="matrix(-1 -1.74846e-07 -1.74846e-07 1 47.8996 91.5723)" fill="#61C3F2"/>
<rect width="3.07221" height="2.30227" rx="0.430476" transform="matrix(-1 -1.74846e-07 -1.74846e-07 1 54.0154 89.1165)" fill="#61C3F2"/>
<rect width="2.15055" height="0.460455" rx="0.230228" transform="matrix(-1 -1.74846e-07 -1.74846e-07 1 53.5546 91.5723)" fill="#61C3F2"/>
<rect width="3.07221" height="2.30227" rx="0.430476" transform="matrix(-1 -1.74846e-07 -1.74846e-07 1 59.6704 89.1165)" fill="#A6A6A6" fill-opacity="0.5"/>
<rect width="2.15055" height="0.460455" rx="0.230228" transform="matrix(-1 -1.74846e-07 -1.74846e-07 1 59.2096 91.5723)" fill="#A6A6A6" fill-opacity="0.5"/>
<rect width="3.07221" height="2.30227" rx="0.430476" transform="matrix(-1 -1.74846e-07 -1.74846e-07 1 65.3256 89.1165)" fill="#A6A6A6" fill-opacity="0.5"/>
<rect width="2.15055" height="0.460455" rx="0.230228" transform="matrix(-1 -1.74846e-07 -1.74846e-07 1 64.8648 91.5723)" fill="#A6A6A6" fill-opacity="0.5"/>
<rect width="3.07221" height="2.30227" rx="0.430476" transform="matrix(-1 -1.74846e-07 -1.74846e-07 1 70.9806 89.1165)" fill="#61C3F2"/>
<rect width="2.15055" height="0.460455" rx="0.230228" transform="matrix(-1 -1.74846e-07 -1.74846e-07 1 70.5198 91.5723)" fill="#61C3F2"/>
<rect width="3.07221" height="2.30227" rx="0.430476" transform="matrix(-1 -1.74846e-07 -1.74846e-07 1 76.6357 89.1165)" fill="#61C3F2"/>
<rect width="2.15055" height="0.460455" rx="0.230228" transform="matrix(-1 -1.74846e-07 -1.74846e-07 1 76.1748 91.5723)" fill="#61C3F2"/>
<rect width="3.07221" height="2.30227" rx="0.430476" transform="matrix(-1 -1.74846e-07 -1.74846e-07 1 82.2908 89.1165)" fill="#A6A6A6" fill-opacity="0.5"/>
<rect width="2.15055" height="0.460455" rx="0.230228" transform="matrix(-1 -1.74846e-07 -1.74846e-07 1 81.83 91.5723)" fill="#A6A6A6" fill-opacity="0.5"/>
<rect width="3.07221" height="2.30227" rx="0.430476" transform="matrix(-1 -1.74846e-07 -1.74846e-07 1 87.9458 89.1165)" fill="#A6A6A6" fill-opacity="0.5"/>
<rect width="2.15055" height="0.460455" rx="0.230228" transform="matrix(-1 -1.74846e-07 -1.74846e-07 1 87.485 91.5723)" fill="#A6A6A6" fill-opacity="0.5"/>
<rect width="3.07221" height="2.30227" rx="0.430476" transform="matrix(-1 -1.74846e-07 -1.74846e-07 1 93.6009 89.1165)" fill="#61C3F2"/>
<rect width="2.15055" height="0.460455" rx="0.230228" transform="matrix(-1 -1.74846e-07 -1.74846e-07 1 93.14 91.5723)" fill="#61C3F2"/>
<rect width="3.07221" height="2.30227" rx="0.430476" transform="matrix(-1 -1.74846e-07 -1.74846e-07 1 99.256 89.1165)" fill="#61C3F2"/>
<rect width="2.15055" height="0.460455" rx="0.230228" transform="matrix(-1 -1.74846e-07 -1.74846e-07 1 98.7951 91.5723)" fill="#61C3F2"/>
<rect width="3.07221" height="2.30227" rx="0.430476" transform="matrix(-1 -1.74846e-07 -1.74846e-07 1 104.911 89.1165)" fill="#A6A6A6" fill-opacity="0.5"/>
<rect width="2.15055" height="0.460455" rx="0.230228" transform="matrix(-1 -1.74846e-07 -1.74846e-07 1 104.45 91.5723)" fill="#A6A6A6" fill-opacity="0.5"/>
<rect width="3.07221" height="2.30227" rx="0.430476" transform="matrix(-1 -1.74846e-07 -1.74846e-07 1 110.566 89.1165)" fill="#A6A6A6" fill-opacity="0.5"/>
<rect width="2.15055" height="0.460455" rx="0.230228" transform="matrix(-1 -1.74846e-07 -1.74846e-07 1 110.105 91.5723)" fill="#A6A6A6" fill-opacity="0.5"/>
<rect width="3.07221" height="2.30227" rx="0.430476" transform="matrix(-1 -1.74846e-07 -1.74846e-07 1 121.876 89.1165)" fill="#A6A6A6" fill-opacity="0.5"/>
<rect width="2.15055" height="0.460455" rx="0.230228" transform="matrix(-1 -1.74846e-07 -1.74846e-07 1 121.415 91.5723)" fill="#A6A6A6" fill-opacity="0.5"/>
<rect width="3.07221" height="2.30227" rx="0.430476" transform="matrix(-1 -1.74846e-07 -1.74846e-07 1 127.531 89.1165)" fill="#61C3F2"/>
<rect width="2.15055" height="0.460455" rx="0.230228" transform="matrix(-1 -1.74846e-07 -1.74846e-07 1 127.07 91.5723)" fill="#61C3F2"/>
<rect width="3.07221" height="2.30227" rx="0.430476" transform="matrix(-1 -1.74846e-07 -1.74846e-07 1 133.186 89.1166)" fill="#61C3F2"/>
<rect width="2.15055" height="0.460455" rx="0.230228" transform="matrix(-1 -1.74846e-07 -1.74846e-07 1 132.725 91.5723)" fill="#61C3F2"/>
<rect width="3.07221" height="2.30227" rx="0.430476" transform="matrix(-1 -1.74846e-07 -1.74846e-07 1 138.841 89.1166)" fill="#A6A6A6" fill-opacity="0.5"/>
<rect width="2.15055" height="0.460455" rx="0.230228" transform="matrix(-1 -1.74846e-07 -1.74846e-07 1 138.381 91.5723)" fill="#A6A6A6" fill-opacity="0.5"/>
<rect width="3.07221" height="2.30227" rx="0.430476" transform="matrix(-1 -1.74846e-07 -1.74846e-07 1 144.496 89.1166)" fill="#A6A6A6" fill-opacity="0.5"/>
<rect width="2.15055" height="0.460455" rx="0.230228" transform="matrix(-1 -1.74846e-07 -1.74846e-07 1 144.036 91.5723)" fill="#A6A6A6" fill-opacity="0.5"/>
<rect width="3.07221" height="2.30227" rx="0.430476" transform="matrix(-1 -1.74846e-07 -1.74846e-07 1 3.11978 95.907)" fill="#61C3F2"/>
<rect width="2.15055" height="0.460455" rx="0.230228" transform="matrix(-1 -1.74846e-07 -1.74846e-07 1 2.65897 98.3628)" fill="#61C3F2"/>
<rect width="3.07221" height="2.30227" rx="0.430476" transform="matrix(-1 -1.74846e-07 -1.74846e-07 1 8.77481 95.907)" fill="#61C3F2"/>
<rect width="2.15055" height="0.460455" rx="0.230228" transform="matrix(-1 -1.74846e-07 -1.74846e-07 1 8.314 98.3628)" fill="#61C3F2"/>
<rect width="3.07221" height="2.30227" rx="0.430476" transform="matrix(-1 -1.74846e-07 -1.74846e-07 1 14.43 95.907)" fill="#A6A6A6" fill-opacity="0.5"/>
<rect width="2.15055" height="0.460455" rx="0.230228" transform="matrix(-1 -1.74846e-07 -1.74846e-07 1 13.9691 98.3628)" fill="#A6A6A6" fill-opacity="0.5"/>
<rect width="3.07221" height="2.30227" rx="0.430476" transform="matrix(-1 -1.74846e-07 -1.74846e-07 1 20.085 95.907)" fill="#A6A6A6" fill-opacity="0.5"/>
<rect width="2.15055" height="0.460455" rx="0.230228" transform="matrix(-1 -1.74846e-07 -1.74846e-07 1 19.6242 98.3628)" fill="#A6A6A6" fill-opacity="0.5"/>
<rect width="3.07221" height="2.30227" rx="0.430476" transform="matrix(-1 -1.74846e-07 -1.74846e-07 1 25.74 95.907)" fill="#A6A6A6" fill-opacity="0.5"/>
<rect width="2.15055" height="0.460455" rx="0.230228" transform="matrix(-1 -1.74846e-07 -1.74846e-07 1 25.2792 98.3628)" fill="#A6A6A6" fill-opacity="0.5"/>
<rect width="3.07221" height="2.30227" rx="0.430476" transform="matrix(-1 -1.74846e-07 -1.74846e-07 1 37.0502 95.907)" fill="#61C3F2"/>
<rect width="2.15055" height="0.460455" rx="0.230228" transform="matrix(-1 -1.74846e-07 -1.74846e-07 1 36.5894 98.3628)" fill="#61C3F2"/>
<rect width="3.07221" height="2.30227" rx="0.430476" transform="matrix(-1 -1.74846e-07 -1.74846e-07 1 42.7052 95.907)" fill="#61C3F2"/>
<rect width="2.15055" height="0.460455" rx="0.230228" transform="matrix(-1 -1.74846e-07 -1.74846e-07 1 42.2444 98.3628)" fill="#61C3F2"/>
<rect width="3.07221" height="2.30227" rx="0.430476" transform="matrix(-1 -1.74846e-07 -1.74846e-07 1 48.3604 95.907)" fill="#A6A6A6" fill-opacity="0.5"/>
<rect width="2.15055" height="0.460455" rx="0.230228" transform="matrix(-1 -1.74846e-07 -1.74846e-07 1 47.8996 98.3628)" fill="#A6A6A6" fill-opacity="0.5"/>
<rect width="3.07221" height="2.30227" rx="0.430476" transform="matrix(-1 -1.74846e-07 -1.74846e-07 1 54.0154 95.907)" fill="#A6A6A6" fill-opacity="0.5"/>
<rect width="2.15055" height="0.460455" rx="0.230228" transform="matrix(-1 -1.74846e-07 -1.74846e-07 1 53.5546 98.3628)" fill="#A6A6A6" fill-opacity="0.5"/>
<rect width="3.07221" height="2.30227" rx="0.430476" transform="matrix(-1 -1.74846e-07 -1.74846e-07 1 59.6704 95.9071)" fill="#61C3F2"/>
<rect width="2.15055" height="0.460455" rx="0.230228" transform="matrix(-1 -1.74846e-07 -1.74846e-07 1 59.2096 98.3628)" fill="#61C3F2"/>
<rect width="3.07221" height="2.30227" rx="0.430476" transform="matrix(-1 -1.74846e-07 -1.74846e-07 1 65.3256 95.9071)" fill="#61C3F2"/>
<rect width="2.15055" height="0.460455" rx="0.230228" transform="matrix(-1 -1.74846e-07 -1.74846e-07 1 64.8648 98.3628)" fill="#61C3F2"/>
<rect width="3.07221" height="2.30227" rx="0.430476" transform="matrix(-1 -1.74846e-07 -1.74846e-07 1 70.9806 95.9071)" fill="#A6A6A6" fill-opacity="0.5"/>
<rect width="2.15055" height="0.460455" rx="0.230228" transform="matrix(-1 -1.74846e-07 -1.74846e-07 1 70.5198 98.3628)" fill="#A6A6A6" fill-opacity="0.5"/>
<rect width="3.07221" height="2.30227" rx="0.430476" transform="matrix(-1 -1.74846e-07 -1.74846e-07 1 76.6357 95.9071)" fill="#A6A6A6" fill-opacity="0.5"/>
<rect width="2.15055" height="0.460455" rx="0.230228" transform="matrix(-1 -1.74846e-07 -1.74846e-07 1 76.1748 98.3628)" fill="#A6A6A6" fill-opacity="0.5"/>
<rect width="3.07221" height="2.30227" rx="0.430476" transform="matrix(-1 -1.74846e-07 -1.74846e-07 1 82.2908 95.9071)" fill="#61C3F2"/>
<rect width="2.15055" height="0.460455" rx="0.230228" transform="matrix(-1 -1.74846e-07 -1.74846e-07 1 81.83 98.3628)" fill="#61C3F2"/>
<rect width="3.07221" height="2.30227" rx="0.430476" transform="matrix(-1 -1.74846e-07 -1.74846e-07 1 87.9458 95.9071)" fill="#61C3F2"/>
<rect width="2.15055" height="0.460455" rx="0.230228" transform="matrix(-1 -1.74846e-07 -1.74846e-07 1 87.485 98.3628)" fill="#61C3F2"/>
<rect width="3.07221" height="2.30227" rx="0.430476" transform="matrix(-1 -1.74846e-07 -1.74846e-07 1 93.6009 95.9071)" fill="#A6A6A6" fill-opacity="0.5"/>
<rect width="2.15055" height="0.460455" rx="0.230228" transform="matrix(-1 -1.74846e-07 -1.74846e-07 1 93.14 98.3628)" fill="#A6A6A6" fill-opacity="0.5"/>
<rect width="3.07221" height="2.30227" rx="0.430476" transform="matrix(-1 -1.74846e-07 -1.74846e-07 1 99.256 95.9071)" fill="#A6A6A6" fill-opacity="0.5"/>
<rect width="2.15055" height="0.460455" rx="0.230228" transform="matrix(-1 -1.74846e-07 -1.74846e-07 1 98.7951 98.3628)" fill="#A6A6A6" fill-opacity="0.5"/>
<rect width="3.07221" height="2.30227" rx="0.430476" transform="matrix(-1 -1.74846e-07 -1.74846e-07 1 104.911 95.9071)" fill="#61C3F2"/>
<rect width="2.15055" height="0.460455" rx="0.230228" transform="matrix(-1 -1.74846e-07 -1.74846e-07 1 104.45 98.3628)" fill="#61C3F2"/>
<rect width="3.07221" height="2.30227" rx="0.430476" transform="matrix(-1 -1.74846e-07 -1.74846e-07 1 110.566 95.9071)" fill="#61C3F2"/>
<rect width="2.15055" height="0.460455" rx="0.230228" transform="matrix(-1 -1.74846e-07 -1.74846e-07 1 110.105 98.3628)" fill="#61C3F2"/>
<rect width="3.07221" height="2.30227" rx="0.430476" transform="matrix(-1 -1.74846e-07 -1.74846e-07 1 121.876 95.9071)" fill="#A6A6A6" fill-opacity="0.5"/>
<rect width="2.15055" height="0.460455" rx="0.230228" transform="matrix(-1 -1.74846e-07 -1.74846e-07 1 121.415 98.3628)" fill="#A6A6A6" fill-opacity="0.5"/>
<rect width="3.07221" height="2.30227" rx="0.430476" transform="matrix(-1 -1.74846e-07 -1.74846e-07 1 127.531 95.9071)" fill="#A6A6A6" fill-opacity="0.5"/>
<rect width="2.15055" height="0.460455" rx="0.230228" transform="matrix(-1 -1.74846e-07 -1.74846e-07 1 127.07 98.3628)" fill="#A6A6A6" fill-opacity="0.5"/>
<rect width="3.07221" height="2.30227" rx="0.430476" transform="matrix(-1 -1.74846e-07 -1.74846e-07 1 133.186 95.9071)" fill="#A6A6A6" fill-opacity="0.5"/>
<rect width="2.15055" height="0.460455" rx="0.230228" transform="matrix(-1 -1.74846e-07 -1.74846e-07 1 132.725 98.3628)" fill="#A6A6A6" fill-opacity="0.5"/>
<rect width="3.07221" height="2.30227" rx="0.430476" transform="matrix(-1 -1.74846e-07 -1.74846e-07 1 138.841 95.9071)" fill="#61C3F2"/>
<rect width="2.15055" height="0.460455" rx="0.230228" transform="matrix(-1 -1.74846e-07 -1.74846e-07 1 138.381 98.3628)" fill="#61C3F2"/>
<rect width="3.07221" height="2.30227" rx="0.430476" transform="matrix(-1 -1.74846e-07 -1.74846e-07 1 144.496 95.9071)" fill="#61C3F2"/>
<rect width="2.15055" height="0.460455" rx="0.230228" transform="matrix(-1 -1.74846e-07 -1.74846e-07 1 144.036 98.3628)" fill="#61C3F2"/>
<rect width="3.07221" height="2.30227" rx="0.430476" transform="matrix(-1 -1.74846e-07 -1.74846e-07 1 8.77481 102.698)" fill="#A6A6A6" fill-opacity="0.5"/>
<rect width="2.15055" height="0.460455" rx="0.230228" transform="matrix(-1 -1.74846e-07 -1.74846e-07 1 8.314 105.153)" fill="#A6A6A6" fill-opacity="0.5"/>
<rect width="3.07221" height="2.30227" rx="0.430476" transform="matrix(-1 -1.74846e-07 -1.74846e-07 1 14.43 102.698)" fill="#4FD2CF"/>
<rect width="2.15055" height="0.460455" rx="0.230228" transform="matrix(-1 -1.74846e-07 -1.74846e-07 1 13.9691 105.153)" fill="#4FD2CF"/>
<rect width="3.07221" height="2.30227" rx="0.430476" transform="matrix(-1 -1.74846e-07 -1.74846e-07 1 20.085 102.698)" fill="#4FD2CF"/>
<rect width="2.15055" height="0.460455" rx="0.230228" transform="matrix(-1 -1.74846e-07 -1.74846e-07 1 19.6242 105.153)" fill="#4FD2CF"/>
<rect width="3.07221" height="2.30227" rx="0.430476" transform="matrix(-1 -1.74846e-07 -1.74846e-07 1 42.7052 102.698)" fill="#61C3F2"/>
<rect width="2.15055" height="0.460455" rx="0.230228" transform="matrix(-1 -1.74846e-07 -1.74846e-07 1 42.2444 105.153)" fill="#61C3F2"/>
<rect width="3.07221" height="2.30227" rx="0.430476" transform="matrix(-1 -1.74846e-07 -1.74846e-07 1 48.3604 102.698)" fill="#A6A6A6" fill-opacity="0.5"/>
<rect width="2.15055" height="0.460455" rx="0.230228" transform="matrix(-1 -1.74846e-07 -1.74846e-07 1 47.8996 105.153)" fill="#A6A6A6" fill-opacity="0.5"/>
<rect width="3.07221" height="2.30227" rx="0.430476" transform="matrix(-1 -1.74846e-07 -1.74846e-07 1 54.0154 102.698)" fill="#A6A6A6" fill-opacity="0.5"/>
<rect width="2.15055" height="0.460455" rx="0.230228" transform="matrix(-1 -1.74846e-07 -1.74846e-07 1 53.5546 105.153)" fill="#A6A6A6" fill-opacity="0.5"/>
<rect width="3.07221" height="2.30227" rx="0.430476" transform="matrix(-1 -1.74846e-07 -1.74846e-07 1 59.6704 102.698)" fill="#61C3F2"/>
<rect width="2.15055" height="0.460455" rx="0.230228" transform="matrix(-1 -1.74846e-07 -1.74846e-07 1 59.2096 105.153)" fill="#61C3F2"/>
<rect width="3.07221" height="2.30227" rx="0.430476" transform="matrix(-1 -1.74846e-07 -1.74846e-07 1 87.9458 102.698)" fill="#61C3F2"/>
<rect width="2.15055" height="0.460455" rx="0.230228" transform="matrix(-1 -1.74846e-07 -1.74846e-07 1 87.485 105.153)" fill="#61C3F2"/>
<rect width="3.07221" height="2.30227" rx="0.430476" transform="matrix(-1 -1.74846e-07 -1.74846e-07 1 93.6009 102.698)" fill="#A6A6A6" fill-opacity="0.5"/>
<rect width="2.15055" height="0.460455" rx="0.230228" transform="matrix(-1 -1.74846e-07 -1.74846e-07 1 93.14 105.153)" fill="#A6A6A6" fill-opacity="0.5"/>
<rect width="3.07221" height="2.30227" rx="0.430476" transform="matrix(-1 -1.74846e-07 -1.74846e-07 1 99.256 102.698)" fill="#A6A6A6" fill-opacity="0.5"/>
<rect width="2.15055" height="0.460455" rx="0.230228" transform="matrix(-1 -1.74846e-07 -1.74846e-07 1 98.7951 105.153)" fill="#A6A6A6" fill-opacity="0.5"/>
<rect width="3.07221" height="2.30227" rx="0.430476" transform="matrix(-1 -1.74846e-07 -1.74846e-07 1 104.911 102.698)" fill="#61C3F2"/>
<rect width="2.15055" height="0.460455" rx="0.230228" transform="matrix(-1 -1.74846e-07 -1.74846e-07 1 104.45 105.153)" fill="#61C3F2"/>
<rect width="3.07221" height="2.30227" rx="0.430476" transform="matrix(-1 -1.74846e-07 -1.74846e-07 1 127.531 102.698)" fill="#4FD2CF"/>
<rect width="2.15055" height="0.460455" rx="0.230228" transform="matrix(-1 -1.74846e-07 -1.74846e-07 1 127.07 105.153)" fill="#4FD2CF"/>
<rect width="3.07221" height="2.30227" rx="0.430476" transform="matrix(-1 -1.74846e-07 -1.74846e-07 1 133.186 102.698)" fill="#4FD2CF"/>
<rect width="2.15055" height="0.460455" rx="0.230228" transform="matrix(-1 -1.74846e-07 -1.74846e-07 1 132.725 105.153)" fill="#4FD2CF"/>
<rect width="3.07221" height="2.30227" rx="0.430476" transform="matrix(-1 -1.74846e-07 -1.74846e-07 1 138.841 102.698)" fill="#A6A6A6" fill-opacity="0.5"/>
<rect width="2.15055" height="0.460455" rx="0.230228" transform="matrix(-1 -1.74846e-07 -1.74846e-07 1 138.381 105.153)" fill="#A6A6A6" fill-opacity="0.5"/>
<mask id="mask0_42_2129" style="mask-type:alpha" maskUnits="userSpaceOnUse" x="0" y="0" width="145" height="17">
<rect x="0.16922" y="1.26448e-05" width="144.255" height="16.2075" fill="#C4C4C4"/>
</mask>
<g mask="url(#mask0_42_2129)">
<path d="M72.1282 1.23433C103.754 1.23437 132.38 5.81261 153.097 13.2109C163.456 16.9102 171.831 21.313 177.615 26.1962C183.399 31.0798 186.579 36.4334 186.579 42.038C186.579 47.6427 183.399 52.9972 177.615 57.8808C171.831 62.7639 163.456 67.1659 153.097 70.8652C132.38 78.2635 103.754 82.8417 72.1282 82.8417C40.5026 82.8417 11.8752 78.2635 -8.84152 70.8652C-19.2002 67.1659 -27.5756 62.7639 -33.3591 57.8808C-39.1432 52.9972 -42.3239 47.6427 -42.3239 42.038C-42.3239 36.4334 -39.1431 31.0798 -33.3591 26.1962C-27.5755 21.313 -19.2004 16.9102 -8.84152 13.2109C11.8752 5.81255 40.5026 1.23433 72.1282 1.23433Z" fill="url(#paint0_linear_42_2129)" fill-opacity="0.3" stroke="#61C3F2" stroke-width="0.215238"/>
</g>
<defs>
<linearGradient id="paint0_linear_42_2129" x1="72.1278" y1="1.1269" x2="72.1278" y2="12.5828" gradientUnits="userSpaceOnUse">
<stop stop-color="#61C3F2" stop-opacity="0.26"/>
<stop offset="1" stop-color="#61C3F2" stop-opacity="0"/>
</linearGradient>
</defs>
</svg>
